<?xml version="1.0" encoding="utf-8"?>
<!-- Generator: Adobe Illustrator 27.4.1, SVG Export Plug-In . SVG Version: 6.00 Build 0)  -->
<svg version="1.1" id="Calque_1" xmlns="http://www.w3.org/2000/svg" xmlns:xlink="http://www.w3.org/1999/xlink" x="0px" y="0px"
	 viewBox="0 0 782 352.1" style="enable-background:new 0 0 782 352.1;" xml:space="preserve">
<style type="text/css">
	.st0{clip-path:url(#SVGID_00000043453560270471893500000003024969987680204179_);}
	.st1{clip-path:url(#SVGID_00000181806234736369783090000002347242410910212784_);}
	.st2{fill:#F00201;}
	.st3{clip-path:url(#SVGID_00000116947829999512049460000017729311310402032007_);}
	.st4{clip-path:url(#SVGID_00000128456513552422444280000005232731248124782777_);}
	.st5{fill:#7B8186;}
</style>
<g>
	<g transform="translate(511.887916, 491.090983)">
		<g>
			<path d="M67.4-219.7v-19.7l-8.8,15.3h-1.4l-8.8-15.3v19.7h-2.4v-24h2.4l9.4,16.4l9.4-16.4h2.4v24H67.4z"/>
		</g>
	</g>
</g>
<g>
	<g transform="translate(534.133921, 491.090983)">
		<g>
			<path d="M57.5-219.4c-0.8,0-1.6-0.1-2.3-0.4s-1.3-0.7-1.9-1.2c-0.5-0.5-0.9-1.1-1.2-1.8c-0.3-0.7-0.4-1.4-0.4-2.1
				c0-0.8,0.2-1.5,0.5-2.1c0.4-0.7,0.9-1.2,1.5-1.7c0.7-0.5,1.4-0.8,2.3-1.1c0.9-0.3,1.9-0.4,3-0.4c0.9,0,1.8,0.1,2.7,0.2
				c0.9,0.2,1.8,0.4,2.5,0.7v-1.6c0-1.6-0.4-2.8-1.3-3.7c-0.9-0.9-2.1-1.4-3.6-1.4c-0.9,0-1.8,0.2-2.8,0.5c-0.9,0.4-1.9,0.9-2.9,1.6
				l-0.8-1.5c2.3-1.5,4.5-2.3,6.6-2.3c2.2,0,3.9,0.6,5.2,1.9c1.3,1.2,1.9,2.9,1.9,5.1v8c0,0.6,0.3,1,0.9,1v2
				c-0.4,0.1-0.7,0.1-0.9,0.1c-0.6,0-1.1-0.1-1.4-0.4c-0.3-0.3-0.5-0.7-0.5-1.2l-0.1-1.4c-0.8,1.1-1.8,1.9-3.1,2.4
				C60.3-219.6,59-219.4,57.5-219.4z M58.1-221.1c1.2,0,2.3-0.2,3.3-0.7c1-0.5,1.8-1.1,2.3-1.8c0.2-0.2,0.4-0.4,0.5-0.6
				c0.1-0.2,0.2-0.5,0.2-0.7v-2.9c-0.8-0.3-1.6-0.5-2.4-0.7c-0.8-0.2-1.7-0.2-2.5-0.2c-1.6,0-2.9,0.3-4,1c-1,0.7-1.5,1.6-1.5,2.7
				c0,0.5,0.1,1.1,0.3,1.5c0.2,0.5,0.5,0.9,0.9,1.2c0.4,0.3,0.8,0.6,1.3,0.8C56.9-221.2,57.5-221.1,58.1-221.1z"/>
		</g>
	</g>
</g>
<g>
	<g transform="translate(547.958408, 491.090983)">
		<g>
			<path d="M66.5-235.3c-1.6,0.1-2.9,0.5-4.1,1.3c-1.2,0.8-2,1.9-2.4,3.3v11h-2.3v-17.6h2.2v4.2c0.7-1.4,1.5-2.4,2.6-3.2
				c1.1-0.8,2.3-1.1,3.6-1.1c0.2,0,0.3,0,0.4,0V-235.3z"/>
		</g>
	</g>
</g>
<g>
	<g transform="translate(556.861879, 491.090983)">
		<g>
			<path d="M59.5-228.6c0-1.2,0.2-2.4,0.6-3.5c0.4-1.1,1-2.1,1.8-2.9c0.8-0.8,1.7-1.5,2.8-2c1.1-0.5,2.3-0.7,3.6-0.7
				c1.7,0,3.1,0.4,4.4,1.1c1.2,0.8,2.2,1.8,2.8,3.1l-2.2,0.7c-0.5-0.9-1.2-1.6-2.1-2.1c-0.9-0.5-1.9-0.8-3-0.8
				c-0.9,0-1.7,0.2-2.5,0.5c-0.8,0.4-1.5,0.9-2,1.5c-0.6,0.6-1,1.3-1.4,2.2c-0.3,0.8-0.5,1.8-0.5,2.8c0,1,0.2,1.9,0.5,2.8
				c0.3,0.9,0.8,1.6,1.4,2.3c0.6,0.6,1.3,1.1,2.1,1.5c0.8,0.4,1.6,0.6,2.5,0.6c0.6,0,1.1-0.1,1.7-0.2c0.6-0.2,1.1-0.4,1.5-0.7
				c0.5-0.3,0.9-0.6,1.2-1c0.3-0.4,0.6-0.7,0.7-1.1l2.3,0.7c-0.2,0.6-0.6,1.2-1.1,1.8c-0.5,0.5-1,1-1.7,1.4
				c-0.6,0.4-1.3,0.7-2.1,0.9c-0.8,0.2-1.6,0.3-2.4,0.3c-1.3,0-2.5-0.2-3.6-0.7c-1.1-0.5-2-1.1-2.8-2c-0.8-0.8-1.4-1.8-1.8-2.9
				C59.7-226.1,59.5-227.3,59.5-228.6z"/>
		</g>
	</g>
</g>
<g>
	<g transform="translate(570.787826, 491.090983)">
		<g>
			<path d="M80.1-219.7h-2.3v-9.9c0-2-0.3-3.5-1-4.5c-0.7-1-1.7-1.5-3-1.5c-0.7,0-1.3,0.1-2,0.4c-0.6,0.2-1.2,0.6-1.8,1.1
				c-0.6,0.4-1,1-1.5,1.6c-0.4,0.6-0.7,1.3-0.9,2v10.8h-2.3v-24.7h2.3v11.1c0.7-1.3,1.7-2.4,2.9-3.1c1.2-0.8,2.6-1.2,4-1.2
				c1,0,1.9,0.2,2.6,0.6c0.7,0.4,1.3,0.9,1.7,1.6c0.5,0.7,0.8,1.5,1,2.4c0.2,0.9,0.3,2,0.3,3.1V-219.7z"/>
		</g>
	</g>
</g>
<g>
	<g transform="translate(585.576221, 491.090983)">
		<g>
			<path d="M78-240.7l-1.5-0.6l2-3.2h2.4L78-240.7z M77.9-219.4c-1.3,0-2.5-0.2-3.5-0.7c-1.1-0.5-2-1.1-2.8-2
				c-0.8-0.8-1.4-1.8-1.8-2.9c-0.4-1.1-0.7-2.3-0.7-3.5s0.2-2.4,0.7-3.5c0.4-1.1,1.1-2.1,1.8-2.9c0.8-0.8,1.7-1.5,2.8-2
				c1.1-0.5,2.3-0.7,3.5-0.7c1.3,0,2.4,0.2,3.5,0.7c1.1,0.5,2,1.1,2.8,2c0.8,0.8,1.4,1.8,1.8,2.9c0.4,1.1,0.6,2.2,0.6,3.5
				c0,0.2,0,0.4,0,0.5c0,0.2,0,0.3,0,0.4H71.4c0.1,0.9,0.3,1.8,0.6,2.6c0.4,0.8,0.9,1.5,1.4,2.1c0.6,0.6,1.3,1,2,1.4
				c0.8,0.3,1.6,0.5,2.4,0.5c0.6,0,1.1-0.1,1.7-0.2c0.6-0.2,1.1-0.4,1.6-0.6c0.5-0.3,0.9-0.6,1.3-1c0.4-0.4,0.7-0.8,0.9-1.3l2,0.5
				c-0.3,0.7-0.7,1.2-1.2,1.8c-0.5,0.5-1.1,1-1.7,1.4c-0.7,0.4-1.4,0.7-2.2,0.9C79.5-219.5,78.7-219.4,77.9-219.4z M84.4-229.4
				c-0.1-0.9-0.3-1.8-0.7-2.6c-0.4-0.8-0.8-1.4-1.4-2c-0.6-0.6-1.2-1-2-1.3c-0.8-0.3-1.6-0.5-2.4-0.5c-0.9,0-1.7,0.2-2.4,0.5
				c-0.8,0.3-1.4,0.8-2,1.3c-0.6,0.6-1,1.2-1.4,2c-0.3,0.8-0.6,1.6-0.6,2.6H84.4z"/>
		</g>
	</g>
</g>
<g>
	<g transform="translate(600.466075, 491.090983)">
	</g>
</g>
<g>
	<g transform="translate(606.934412, 491.090983)">
		<g>
			<path d="M77.9-219.7v-24h9.9c1,0,2,0.2,2.9,0.7c0.9,0.4,1.6,1,2.2,1.7c0.6,0.7,1.1,1.5,1.5,2.4c0.4,0.9,0.5,1.8,0.5,2.7
				c0,1-0.2,2-0.5,2.9c-0.3,0.9-0.8,1.7-1.4,2.4c-0.6,0.7-1.3,1.3-2.2,1.7c-0.8,0.4-1.8,0.6-2.8,0.6h-7.8v8.9H77.9z M80.2-230.7h7.7
				c0.7,0,1.3-0.2,1.9-0.5c0.6-0.3,1.1-0.7,1.5-1.2c0.4-0.5,0.7-1.1,0.9-1.8c0.2-0.7,0.4-1.4,0.4-2.1c0-0.7-0.1-1.4-0.4-2.1
				c-0.2-0.7-0.6-1.2-1-1.8c-0.4-0.5-1-0.9-1.6-1.2c-0.6-0.3-1.2-0.4-1.9-0.4h-7.5V-230.7z"/>
		</g>
	</g>
</g>
<g>
	<g transform="translate(622.71208, 491.090983)">
		<g>
			<path d="M88.2-219.4c-1.9,0-3.4-0.6-4.3-1.9c-0.9-1.3-1.4-3.2-1.4-5.7v-10.4h2.3v9.9c0,4,1.4,6,4.1,6c0.7,0,1.3-0.1,2-0.3
				c0.7-0.2,1.3-0.6,1.8-1c0.6-0.4,1-0.9,1.5-1.5c0.4-0.6,0.8-1.3,1.1-2v-11.1h2.3v14.6c0,0.6,0.3,1,0.8,1v2c-0.3,0-0.5,0.1-0.7,0.1
				c-0.2,0-0.3,0-0.3,0c-0.5,0-1-0.2-1.3-0.6c-0.3-0.4-0.5-0.8-0.5-1.5v-2c-0.8,1.4-1.8,2.4-3.1,3.2C91-219.7,89.6-219.4,88.2-219.4
				z"/>
		</g>
	</g>
</g>
<g>
	<g transform="translate(637.779499, 491.090983)">
		<g>
			<path d="M96.3-219.4c-1.4,0-2.7-0.3-3.9-1c-1.2-0.7-2.1-1.6-2.7-2.7v3.4h-2.1v-24.7h2.3v10.8c0.8-1.2,1.7-2.2,2.8-2.9
				c1.1-0.7,2.4-1.1,3.9-1.1c1.2,0,2.3,0.3,3.3,0.8c1,0.5,1.8,1.2,2.5,2.1c0.7,0.9,1.2,1.8,1.6,2.9c0.4,1.1,0.6,2.2,0.6,3.4
				c0,1.2-0.2,2.4-0.6,3.5c-0.4,1.1-1,2.1-1.8,2.9c-0.7,0.8-1.6,1.5-2.6,2C98.5-219.6,97.4-219.4,96.3-219.4z M95.7-221.4
				c1,0,1.9-0.2,2.6-0.6c0.8-0.4,1.5-0.9,2.1-1.6c0.6-0.7,1-1.4,1.4-2.3c0.3-0.8,0.5-1.7,0.5-2.6c0-0.9-0.2-1.8-0.5-2.7
				c-0.3-0.9-0.7-1.6-1.3-2.3c-0.5-0.7-1.2-1.2-2-1.6c-0.8-0.4-1.6-0.6-2.6-0.6c-0.7,0-1.3,0.1-2,0.4c-0.6,0.2-1.2,0.6-1.7,1
				c-0.5,0.4-1,0.9-1.4,1.4c-0.4,0.5-0.7,1.1-1,1.7v5.5c0.1,0.6,0.3,1.2,0.7,1.7c0.4,0.5,0.9,1,1.4,1.4c0.6,0.4,1.2,0.7,1.8,0.9
				C94.5-221.5,95.2-221.4,95.7-221.4z"/>
		</g>
	</g>
</g>
<g>
	<g transform="translate(653.430331, 491.090983)">
		<g>
			<path d="M93-244.4h2.3v20.7c0,0.7,0.2,1.2,0.5,1.5c0.4,0.4,0.9,0.6,1.5,0.6c0.2,0,0.5,0,0.9-0.1c0.3-0.1,0.7-0.2,1-0.3l0.4,1.9
				c-0.4,0.2-1,0.3-1.6,0.4c-0.6,0.1-1.1,0.2-1.6,0.2c-1.1,0-1.9-0.3-2.5-0.9c-0.6-0.6-0.9-1.4-0.9-2.5V-244.4z"/>
		</g>
	</g>
</g>
<g>
	<g transform="translate(660.329892, 491.090983)">
		<g>
			<path d="M95.2-219.7v-17.6h2.3v17.6H95.2z M95.2-241v-3.4h2.3v3.4H95.2z"/>
		</g>
	</g>
</g>
<g>
	<g transform="translate(665.859687, 491.090983)">
		<g>
			<path d="M95.8-228.6c0-1.2,0.2-2.4,0.6-3.5c0.4-1.1,1-2.1,1.8-2.9c0.8-0.8,1.7-1.5,2.8-2c1.1-0.5,2.3-0.7,3.6-0.7
				c1.7,0,3.1,0.4,4.4,1.1c1.2,0.8,2.2,1.8,2.8,3.1l-2.2,0.7c-0.5-0.9-1.2-1.6-2.1-2.1c-0.9-0.5-1.9-0.8-3-0.8
				c-0.9,0-1.7,0.2-2.5,0.5c-0.8,0.4-1.5,0.9-2,1.5c-0.6,0.6-1,1.3-1.4,2.2c-0.3,0.8-0.5,1.8-0.5,2.8c0,1,0.2,1.9,0.5,2.8
				c0.3,0.9,0.8,1.6,1.4,2.3c0.6,0.6,1.3,1.1,2.1,1.5c0.8,0.4,1.6,0.6,2.5,0.6c0.6,0,1.1-0.1,1.7-0.2c0.6-0.2,1.1-0.4,1.5-0.7
				c0.5-0.3,0.9-0.6,1.2-1c0.3-0.4,0.6-0.7,0.7-1.1l2.3,0.7c-0.2,0.6-0.6,1.2-1.1,1.8c-0.5,0.5-1,1-1.7,1.4
				c-0.6,0.4-1.3,0.7-2.1,0.9c-0.8,0.2-1.6,0.3-2.4,0.3c-1.3,0-2.5-0.2-3.6-0.7c-1.1-0.5-2-1.1-2.8-2c-0.8-0.8-1.4-1.8-1.8-2.9
				C96-226.1,95.8-227.3,95.8-228.6z"/>
		</g>
	</g>
</g>
<g>
	<g transform="translate(572.352816, 526.219237)">
		<g>
			<path d="M72.7-218.6c1.1,0,2.1,0.2,3.1,0.6c1,0.4,1.8,0.9,2.5,1.6c0.7,0.7,1.3,1.5,1.7,2.4c0.4,0.9,0.6,2,0.6,3.1
				c0,1.2-0.2,2.3-0.7,3.3c-0.4,1-1.1,1.8-1.8,2.5c-0.8,0.7-1.6,1.2-2.6,1.6c-1,0.4-2.1,0.6-3.2,0.6c-0.8,0-1.7-0.1-2.4-0.3
				c-0.8-0.2-1.5-0.5-2.1-0.9c-0.7-0.4-1.2-0.9-1.8-1.5c-0.5-0.6-1-1.2-1.3-1.9l1.5-1.1c0.6,1.1,1.5,2,2.6,2.7c1.1,0.7,2.3,1,3.6,1
				c0.8,0,1.6-0.1,2.3-0.4c0.7-0.3,1.4-0.7,1.9-1.2c0.5-0.5,1-1.1,1.3-1.9c0.3-0.7,0.5-1.5,0.5-2.4c0-0.8-0.1-1.6-0.4-2.3
				c-0.3-0.7-0.7-1.3-1.2-1.8c-0.5-0.5-1.1-0.9-1.8-1.1c-0.7-0.3-1.4-0.4-2.2-0.4c-1.1,0-2.1,0.2-3,0.7c-0.9,0.5-1.7,1.1-2.3,2H65
				c0-0.1,0.1-0.4,0.2-0.9c0.1-0.5,0.2-1.1,0.3-1.7c0.1-0.7,0.3-1.4,0.4-2.2c0.2-0.8,0.3-1.6,0.5-2.4c0.4-1.9,0.8-4,1.2-6.3h11.6
				v2.1h-9.9l-1.6,8.6c0.6-0.6,1.3-1.1,2.1-1.5C70.7-218.4,71.7-218.6,72.7-218.6z"/>
		</g>
	</g>
</g>
<g>
	<g transform="translate(586.177303, 526.219237)">
		<g>
			<path d="M86.3-214.7c0,1.1-0.2,2-0.7,2.9c-0.4,0.8-1.1,1.6-1.8,2.2c-0.8,0.6-1.7,1.1-2.7,1.4c-1,0.3-2.1,0.5-3.2,0.5
				c-1.2,0-2.3-0.2-3.3-0.6c-1-0.4-1.9-0.9-2.6-1.5c-0.7-0.6-1.3-1.4-1.7-2.2c-0.4-0.9-0.6-1.8-0.6-2.7c0-0.8,0.1-1.5,0.4-2.1
				c0.3-0.7,0.7-1.2,1.1-1.7c0.5-0.5,1-1,1.5-1.3c0.6-0.4,1.2-0.7,1.8-0.9c-0.5-0.2-1.1-0.5-1.5-0.8c-0.5-0.3-0.9-0.7-1.2-1.1
				c-0.4-0.4-0.7-0.9-0.9-1.4c-0.2-0.5-0.3-1.1-0.3-1.7c0-1,0.2-1.9,0.7-2.6c0.5-0.8,1-1.4,1.8-1.9c0.7-0.5,1.5-0.9,2.4-1.2
				c0.9-0.3,1.8-0.4,2.7-0.4c0.9,0,1.8,0.1,2.7,0.4c0.9,0.3,1.7,0.7,2.4,1.2c0.7,0.5,1.3,1.1,1.7,1.9c0.5,0.8,0.7,1.6,0.7,2.6
				c0,0.6-0.1,1.2-0.3,1.7c-0.2,0.5-0.5,1-0.9,1.4c-0.4,0.4-0.8,0.8-1.3,1.2c-0.5,0.3-1,0.6-1.5,0.8c0.7,0.2,1.3,0.5,1.9,0.9
				c0.6,0.4,1.1,0.8,1.5,1.4c0.4,0.5,0.8,1.1,1.1,1.8C86.2-216.1,86.3-215.4,86.3-214.7z M84-214.8c0-0.8-0.2-1.5-0.5-2.1
				c-0.4-0.6-0.8-1.2-1.4-1.6c-0.6-0.4-1.2-0.8-2-1c-0.7-0.2-1.4-0.3-2.1-0.3c-0.8,0-1.5,0.1-2.2,0.4c-0.7,0.2-1.3,0.6-1.9,1
				c-0.6,0.4-1,1-1.4,1.6c-0.3,0.6-0.5,1.3-0.5,2.1c0,0.8,0.2,1.5,0.5,2.1c0.4,0.6,0.8,1.2,1.4,1.6c0.6,0.4,1.2,0.7,1.9,1
				c0.7,0.2,1.4,0.3,2.1,0.3c0.7,0,1.4-0.1,2.1-0.4c0.7-0.2,1.3-0.6,1.9-1c0.6-0.4,1-1,1.4-1.6C83.8-213.4,84-214.1,84-214.8z
				 M72.7-225.8c0,0.7,0.2,1.2,0.5,1.8c0.3,0.5,0.7,0.9,1.2,1.3c0.5,0.3,1.1,0.6,1.7,0.8c0.6,0.2,1.2,0.3,1.8,0.3
				c0.6,0,1.2-0.1,1.8-0.3c0.6-0.2,1.2-0.4,1.7-0.8c0.5-0.4,0.9-0.8,1.2-1.3c0.3-0.5,0.5-1.1,0.5-1.8c0-0.6-0.1-1.2-0.4-1.7
				c-0.3-0.5-0.7-0.9-1.2-1.3c-0.5-0.3-1.1-0.6-1.7-0.8c-0.6-0.2-1.3-0.3-2-0.3c-0.7,0-1.3,0.1-1.9,0.3c-0.6,0.2-1.2,0.5-1.6,0.8
				c-0.5,0.3-0.9,0.8-1.1,1.3C72.9-227,72.7-226.4,72.7-225.8z"/>
		</g>
	</g>
</g>
<g>
	<g transform="translate(601.219357, 526.219237)">
		<g>
			<path d="M79.4-222.6c-0.7,0-1.4-0.1-2-0.4c-0.6-0.2-1.1-0.6-1.6-1c-0.4-0.4-0.8-1-1.1-1.5c-0.3-0.6-0.4-1.2-0.4-1.9
				c0-0.7,0.1-1.3,0.4-1.9c0.3-0.6,0.6-1.1,1.1-1.5c0.5-0.4,1-0.8,1.6-1c0.6-0.3,1.3-0.4,2-0.4c0.7,0,1.3,0.1,2,0.4
				c0.6,0.2,1.1,0.6,1.6,1c0.5,0.4,0.8,0.9,1.1,1.5c0.3,0.6,0.4,1.2,0.4,1.9c0,0.7-0.1,1.3-0.4,1.9c-0.3,0.6-0.6,1.1-1.1,1.5
				c-0.5,0.4-1,0.8-1.6,1C80.7-222.8,80.1-222.6,79.4-222.6z M79.4-224c0.4,0,0.9-0.1,1.3-0.3c0.4-0.2,0.8-0.4,1.1-0.8
				c0.3-0.3,0.5-0.7,0.7-1.1c0.2-0.4,0.3-0.9,0.3-1.3c0-0.5-0.1-1-0.3-1.4c-0.2-0.4-0.4-0.8-0.7-1.1c-0.3-0.3-0.7-0.6-1.1-0.8
				c-0.4-0.2-0.8-0.3-1.2-0.3c-0.5,0-0.9,0.1-1.3,0.3c-0.4,0.2-0.8,0.4-1.1,0.8c-0.3,0.3-0.5,0.7-0.7,1.1c-0.2,0.4-0.2,0.9-0.2,1.4
				c0,0.5,0.1,0.9,0.3,1.4c0.2,0.4,0.4,0.8,0.7,1.1c0.3,0.3,0.7,0.6,1.1,0.8C78.5-224.1,78.9-224,79.4-224z M90.7-207.7
				c-0.7,0-1.4-0.1-2-0.4c-0.6-0.2-1.1-0.6-1.6-1c-0.5-0.4-0.8-1-1.1-1.6c-0.2-0.6-0.4-1.2-0.4-1.9c0-0.7,0.1-1.3,0.4-1.9
				c0.3-0.6,0.6-1.1,1.1-1.5c0.5-0.4,1-0.8,1.6-1c0.6-0.2,1.3-0.4,2-0.4c0.7,0,1.3,0.1,2,0.4c0.6,0.2,1.2,0.6,1.6,1
				c0.5,0.4,0.8,0.9,1.1,1.5c0.3,0.6,0.4,1.2,0.4,1.9c0,0.7-0.1,1.3-0.4,1.9c-0.3,0.6-0.6,1.1-1.1,1.6c-0.4,0.4-1,0.8-1.6,1
				C92-207.8,91.4-207.7,90.7-207.7z M90.7-209c0.5,0,0.9-0.1,1.3-0.3c0.4-0.2,0.8-0.4,1-0.8c0.3-0.3,0.5-0.7,0.7-1.1
				c0.2-0.4,0.3-0.9,0.3-1.4c0-0.5-0.1-0.9-0.3-1.3c-0.2-0.4-0.4-0.8-0.7-1.1c-0.3-0.3-0.7-0.6-1.1-0.8c-0.4-0.2-0.8-0.3-1.2-0.3
				c-0.5,0-0.9,0.1-1.3,0.3c-0.4,0.2-0.8,0.5-1.1,0.8c-0.3,0.3-0.6,0.7-0.7,1.1c-0.2,0.4-0.2,0.9-0.2,1.3c0,0.5,0.1,1,0.3,1.4
				c0.2,0.4,0.4,0.8,0.7,1.1c0.3,0.3,0.7,0.6,1,0.7C89.8-209.1,90.2-209,90.7-209z M75.1-208.9l9.4-11.5l9.2-11.8l1.2,1l-9.4,11.5
				l-9.2,11.8L75.1-208.9z"/>
		</g>
	</g>
</g>
<g>
	<g transform="translate(0.0294042, 399.136209)">
		<g>
			<path d="M25.6-345.6v-19.7l-8.8,15.3h-1.4l-8.8-15.3v19.7H4.4v-24h2.4l9.4,16.4l9.4-16.4H28v24H25.6z"/>
		</g>
	</g>
</g>
<g>
	<g transform="translate(22.275409, 399.136209)">
		<g>
			<path d="M15.7-345.3c-0.8,0-1.6-0.1-2.3-0.4s-1.3-0.7-1.9-1.2c-0.5-0.5-0.9-1.1-1.2-1.8c-0.3-0.7-0.4-1.4-0.4-2.1
				c0-0.8,0.2-1.5,0.5-2.1c0.4-0.7,0.9-1.2,1.5-1.7c0.7-0.5,1.4-0.8,2.3-1.1c0.9-0.3,1.9-0.4,3-0.4c0.9,0,1.8,0.1,2.7,0.2
				c0.9,0.2,1.8,0.4,2.5,0.7v-1.6c0-1.6-0.4-2.8-1.3-3.7c-0.9-0.9-2.1-1.4-3.6-1.4c-0.9,0-1.8,0.2-2.8,0.5c-0.9,0.4-1.9,0.9-2.9,1.6
				l-0.8-1.5c2.3-1.5,4.5-2.3,6.6-2.3c2.2,0,3.9,0.6,5.2,1.9c1.3,1.2,1.9,2.9,1.9,5.1v8c0,0.6,0.3,1,0.9,1v2
				c-0.4,0.1-0.7,0.1-0.9,0.1c-0.6,0-1.1-0.1-1.4-0.4c-0.3-0.3-0.5-0.7-0.5-1.2l-0.1-1.4c-0.8,1.1-1.8,1.9-3.1,2.4
				C18.5-345.6,17.1-345.3,15.7-345.3z M16.3-347c1.2,0,2.3-0.2,3.3-0.7c1-0.5,1.8-1.1,2.3-1.8c0.2-0.2,0.4-0.4,0.5-0.6
				c0.1-0.2,0.2-0.5,0.2-0.7v-2.9c-0.8-0.3-1.6-0.5-2.4-0.7c-0.8-0.2-1.7-0.2-2.5-0.2c-1.6,0-2.9,0.3-4,1c-1,0.7-1.5,1.6-1.5,2.7
				c0,0.5,0.1,1.1,0.3,1.5c0.2,0.5,0.5,0.9,0.9,1.2c0.4,0.3,0.8,0.6,1.3,0.8C15.1-347.1,15.7-347,16.3-347z"/>
		</g>
	</g>
</g>
<g>
	<g transform="translate(36.099896, 399.136209)">
		<g>
			<path d="M24.7-361.2c-1.6,0.1-2.9,0.5-4.1,1.3c-1.2,0.8-2,1.9-2.4,3.3v11h-2.3v-17.6h2.2v4.2c0.7-1.4,1.5-2.4,2.6-3.2
				c1.1-0.8,2.3-1.1,3.6-1.1c0.2,0,0.3,0,0.4,0V-361.2z"/>
		</g>
	</g>
</g>
<g>
	<g transform="translate(45.003367, 399.136209)">
		<g>
			<path d="M17.6-354.5c0-1.2,0.2-2.4,0.6-3.5c0.4-1.1,1-2.1,1.8-2.9c0.8-0.8,1.7-1.5,2.8-2c1.1-0.5,2.3-0.7,3.6-0.7
				c1.7,0,3.1,0.4,4.4,1.1c1.2,0.8,2.2,1.8,2.8,3.1l-2.2,0.7c-0.5-0.9-1.2-1.6-2.1-2.1c-0.9-0.5-1.9-0.8-3-0.8
				c-0.9,0-1.7,0.2-2.5,0.5c-0.8,0.4-1.5,0.9-2,1.5c-0.6,0.6-1,1.3-1.4,2.2c-0.3,0.8-0.5,1.8-0.5,2.8c0,1,0.2,1.9,0.5,2.8
				c0.3,0.9,0.8,1.6,1.4,2.3c0.6,0.6,1.3,1.1,2.1,1.5c0.8,0.4,1.6,0.6,2.5,0.6c0.6,0,1.1-0.1,1.7-0.2c0.6-0.2,1.1-0.4,1.5-0.7
				c0.5-0.3,0.9-0.6,1.2-1c0.3-0.4,0.6-0.7,0.7-1.1l2.3,0.7c-0.2,0.6-0.6,1.2-1.1,1.8c-0.5,0.5-1,1-1.7,1.4
				c-0.6,0.4-1.3,0.7-2.1,0.9c-0.8,0.2-1.6,0.3-2.4,0.3c-1.3,0-2.5-0.2-3.6-0.7c-1.1-0.5-2-1.1-2.8-2c-0.8-0.8-1.4-1.8-1.8-2.9
				C17.9-352,17.6-353.2,17.6-354.5z"/>
		</g>
	</g>
</g>
<g>
	<g transform="translate(58.929314, 399.136209)">
		<g>
			<path d="M38.3-345.6H36v-9.9c0-2-0.3-3.5-1-4.5c-0.7-1-1.7-1.5-3-1.5c-0.7,0-1.3,0.1-2,0.4c-0.6,0.2-1.2,0.6-1.8,1.1
				c-0.6,0.4-1,1-1.5,1.6c-0.4,0.6-0.7,1.3-0.9,2v10.8h-2.3v-24.7h2.3v11.1c0.7-1.3,1.7-2.4,2.9-3.1c1.2-0.8,2.6-1.2,4-1.2
				c1,0,1.9,0.2,2.6,0.6c0.7,0.4,1.3,0.9,1.7,1.6c0.5,0.7,0.8,1.5,1,2.4c0.2,0.9,0.3,2,0.3,3.1V-345.6z"/>
		</g>
	</g>
</g>
<g>
	<g transform="translate(73.717709, 399.136209)">
		<g>
			<path d="M36.1-366.6l-1.5-0.6l2-3.2h2.4L36.1-366.6z M36-345.3c-1.3,0-2.5-0.2-3.5-0.7c-1.1-0.5-2-1.1-2.8-2
				c-0.8-0.8-1.4-1.8-1.8-2.9c-0.4-1.1-0.7-2.3-0.7-3.5s0.2-2.4,0.7-3.5c0.4-1.1,1.1-2.1,1.8-2.9c0.8-0.8,1.7-1.5,2.8-2
				c1.1-0.5,2.3-0.7,3.5-0.7c1.3,0,2.4,0.2,3.5,0.7c1.1,0.5,2,1.1,2.8,2c0.8,0.8,1.4,1.8,1.8,2.9c0.4,1.1,0.6,2.2,0.6,3.5
				c0,0.2,0,0.4,0,0.5c0,0.2,0,0.3,0,0.4H29.6c0.1,0.9,0.3,1.8,0.6,2.6c0.4,0.8,0.9,1.5,1.4,2.1c0.6,0.6,1.3,1,2,1.4
				c0.8,0.3,1.6,0.5,2.4,0.5c0.6,0,1.1-0.1,1.7-0.2c0.6-0.2,1.1-0.4,1.6-0.6c0.5-0.3,0.9-0.6,1.3-1c0.4-0.4,0.7-0.8,0.9-1.3l2,0.5
				c-0.3,0.7-0.7,1.2-1.2,1.8c-0.5,0.5-1.1,1-1.7,1.4c-0.7,0.4-1.4,0.7-2.2,0.9C37.7-345.4,36.9-345.3,36-345.3z M42.5-355.4
				c-0.1-0.9-0.3-1.8-0.7-2.6c-0.4-0.8-0.8-1.4-1.4-2c-0.6-0.6-1.2-1-2-1.3c-0.8-0.3-1.6-0.5-2.4-0.5c-0.9,0-1.7,0.2-2.4,0.5
				c-0.8,0.3-1.4,0.8-2,1.3c-0.6,0.6-1,1.2-1.4,2c-0.3,0.8-0.6,1.6-0.6,2.6H42.5z"/>
		</g>
	</g>
</g>
<g>
	<g transform="translate(88.607563, 399.136209)">
	</g>
</g>
<g>
	<g transform="translate(95.0759, 399.136209)">
		<g>
			<path d="M36-345.6v-24H46c1,0,2,0.2,2.9,0.7c0.9,0.4,1.6,1,2.2,1.7c0.6,0.7,1.1,1.5,1.5,2.4c0.4,0.9,0.5,1.8,0.5,2.7
				c0,1-0.2,2-0.5,2.9c-0.3,0.9-0.8,1.7-1.4,2.4c-0.6,0.7-1.3,1.3-2.2,1.7c-0.8,0.4-1.8,0.6-2.8,0.6h-7.8v8.9H36z M38.4-356.6h7.7
				c0.7,0,1.3-0.2,1.9-0.5c0.6-0.3,1.1-0.7,1.5-1.2c0.4-0.5,0.7-1.1,0.9-1.8c0.2-0.7,0.4-1.4,0.4-2.1c0-0.7-0.1-1.4-0.4-2.1
				c-0.2-0.7-0.6-1.2-1-1.8c-0.4-0.5-1-0.9-1.6-1.2c-0.6-0.3-1.2-0.4-1.9-0.4h-7.5V-356.6z"/>
		</g>
	</g>
</g>
<g>
	<g transform="translate(110.853567, 399.136209)">
		<g>
			<path d="M49.6-361.2c-1.6,0.1-2.9,0.5-4.1,1.3c-1.2,0.8-2,1.9-2.4,3.3v11h-2.3v-17.6H43v4.2c0.7-1.4,1.5-2.4,2.6-3.2
				c1.1-0.8,2.3-1.1,3.6-1.1c0.2,0,0.3,0,0.4,0V-361.2z"/>
		</g>
	</g>
</g>
<g>
	<g transform="translate(119.757038, 399.136209)">
		<g>
			<path d="M43.8-345.6v-17.6h2.3v17.6H43.8z M43.8-366.9v-3.4h2.3v3.4H43.8z"/>
		</g>
	</g>
</g>
<g>
	<g transform="translate(125.286833, 399.136209)">
		<g>
			<path d="M50.9-345.6l-7.2-17.6h2.4l6,15.5l6.1-15.5h2.2l-7.2,17.6H50.9z"/>
		</g>
	</g>
</g>
<g>
	<g transform="translate(138.806922, 399.136209)">
		<g>
			<path d="M57.8-366.6l-1.5-0.6l2-3.2h2.4L57.8-366.6z M57.7-345.3c-1.3,0-2.5-0.2-3.5-0.7c-1.1-0.5-2-1.1-2.8-2
				c-0.8-0.8-1.4-1.8-1.8-2.9c-0.4-1.1-0.7-2.3-0.7-3.5s0.2-2.4,0.7-3.5c0.4-1.1,1.1-2.1,1.8-2.9c0.8-0.8,1.7-1.5,2.8-2
				c1.1-0.5,2.3-0.7,3.5-0.7c1.3,0,2.4,0.2,3.5,0.7c1.1,0.5,2,1.1,2.8,2c0.8,0.8,1.4,1.8,1.8,2.9c0.4,1.1,0.6,2.2,0.6,3.5
				c0,0.2,0,0.4,0,0.5c0,0.2,0,0.3,0,0.4H51.3c0.1,0.9,0.3,1.8,0.6,2.6c0.4,0.8,0.9,1.5,1.4,2.1c0.6,0.6,1.3,1,2,1.4
				c0.8,0.3,1.6,0.5,2.4,0.5c0.6,0,1.1-0.1,1.7-0.2c0.6-0.2,1.1-0.4,1.6-0.6c0.5-0.3,0.9-0.6,1.3-1c0.4-0.4,0.7-0.8,0.9-1.3l2,0.5
				c-0.3,0.7-0.7,1.2-1.2,1.8c-0.5,0.5-1.1,1-1.7,1.4c-0.7,0.4-1.4,0.7-2.2,0.9C59.4-345.4,58.6-345.3,57.7-345.3z M64.2-355.4
				c-0.1-0.9-0.3-1.8-0.7-2.6c-0.4-0.8-0.8-1.4-1.4-2c-0.6-0.6-1.2-1-2-1.3c-0.8-0.3-1.6-0.5-2.4-0.5c-0.9,0-1.7,0.2-2.4,0.5
				c-0.8,0.3-1.4,0.8-2,1.3c-0.6,0.6-1,1.2-1.4,2c-0.3,0.8-0.6,1.6-0.6,2.6H64.2z"/>
		</g>
	</g>
</g>
<g>
	<g transform="translate(54.270408, 434.264463)">
		<g>
			<path d="M31.5-329.6v-6H20.2v-2l12-15.6h1.6v15.5h3v2.1h-3v6H31.5z M22.6-337.7h9.1v-11.9L22.6-337.7z"/>
		</g>
	</g>
</g>
<g>
	<g transform="translate(68.12026, 434.264463)">
		<g>
			<path d="M25.5-333.9c0-0.8,0.1-1.5,0.2-2.3c0.1-0.8,0.4-1.5,0.8-2.3c0.4-0.8,1-1.5,1.7-2.2c0.7-0.7,1.7-1.4,2.9-2
				c0.7-0.3,1.3-0.7,2-1c0.7-0.3,1.4-0.7,2-1.1c0.6-0.4,1.1-0.9,1.5-1.4c0.4-0.5,0.6-1.1,0.6-1.8c0-0.4-0.1-0.9-0.3-1.3
				c-0.2-0.4-0.5-0.8-0.9-1.1c-0.4-0.3-0.8-0.6-1.4-0.8c-0.6-0.2-1.2-0.3-2-0.3c-0.7,0-1.4,0.1-2,0.3c-0.6,0.2-1.1,0.5-1.5,0.8
				c-0.4,0.3-0.8,0.6-1.1,0.9c-0.3,0.3-0.5,0.6-0.7,0.8l-1.5-1.6c0.1-0.1,0.4-0.4,0.8-0.8c0.4-0.4,0.9-0.7,1.5-1.1
				c0.6-0.4,1.4-0.7,2.2-1c0.8-0.3,1.8-0.4,2.8-0.4c1,0,2,0.1,2.8,0.4c0.8,0.3,1.5,0.7,2.1,1.2c0.6,0.5,1,1.1,1.3,1.7
				c0.3,0.6,0.4,1.3,0.4,2c0,0.9-0.2,1.7-0.6,2.4c-0.4,0.7-0.9,1.2-1.5,1.8c-0.6,0.5-1.2,0.9-1.9,1.3c-0.7,0.3-1.3,0.6-1.8,0.9
				c-0.7,0.3-1.4,0.7-2.1,1.1c-0.7,0.4-1.3,0.8-1.8,1.3c-0.5,0.5-1,1-1.3,1.6c-0.3,0.6-0.5,1.2-0.5,2h12v2.1H25.5z"/>
		</g>
	</g>
</g>
<g>
	<g transform="translate(81.335959, 434.264463)">
		<g>
			<path d="M34.9-348.5c-0.7,0-1.4-0.1-2-0.4c-0.6-0.2-1.1-0.6-1.6-1c-0.4-0.4-0.8-1-1.1-1.5c-0.3-0.6-0.4-1.2-0.4-1.9
				c0-0.7,0.1-1.3,0.4-1.9c0.3-0.6,0.6-1.1,1.1-1.5c0.5-0.4,1-0.8,1.6-1c0.6-0.3,1.3-0.4,2-0.4c0.7,0,1.3,0.1,2,0.4
				c0.6,0.2,1.1,0.6,1.6,1c0.5,0.4,0.8,0.9,1.1,1.5c0.3,0.6,0.4,1.2,0.4,1.9c0,0.7-0.1,1.3-0.4,1.9c-0.3,0.6-0.6,1.1-1.1,1.5
				c-0.5,0.4-1,0.8-1.6,1C36.2-348.7,35.6-348.5,34.9-348.5z M34.9-349.9c0.4,0,0.9-0.1,1.3-0.3c0.4-0.2,0.8-0.4,1.1-0.8
				c0.3-0.3,0.5-0.7,0.7-1.1c0.2-0.4,0.3-0.9,0.3-1.3c0-0.5-0.1-1-0.3-1.4c-0.2-0.4-0.4-0.8-0.7-1.1c-0.3-0.3-0.7-0.6-1.1-0.8
				c-0.4-0.2-0.8-0.3-1.2-0.3c-0.5,0-0.9,0.1-1.3,0.3c-0.4,0.2-0.8,0.4-1.1,0.8c-0.3,0.3-0.5,0.7-0.7,1.1c-0.2,0.4-0.2,0.9-0.2,1.4
				c0,0.5,0.1,0.9,0.3,1.4c0.2,0.4,0.4,0.8,0.7,1.1c0.3,0.3,0.7,0.6,1.1,0.8C34-350,34.4-349.9,34.9-349.9z M46.2-333.6
				c-0.7,0-1.4-0.1-2-0.4c-0.6-0.2-1.1-0.6-1.6-1c-0.5-0.4-0.8-1-1.1-1.6c-0.2-0.6-0.4-1.2-0.4-1.9c0-0.7,0.1-1.3,0.4-1.9
				c0.3-0.6,0.6-1.1,1.1-1.5c0.5-0.4,1-0.8,1.6-1c0.6-0.2,1.3-0.4,2-0.4c0.7,0,1.3,0.1,2,0.4c0.6,0.2,1.2,0.6,1.6,1
				c0.5,0.4,0.8,0.9,1.1,1.5c0.3,0.6,0.4,1.2,0.4,1.9c0,0.7-0.1,1.3-0.4,1.9c-0.3,0.6-0.6,1.1-1.1,1.6c-0.4,0.4-1,0.8-1.6,1
				C47.6-333.7,46.9-333.6,46.2-333.6z M46.2-334.9c0.5,0,0.9-0.1,1.3-0.3c0.4-0.2,0.8-0.4,1-0.8c0.3-0.3,0.5-0.7,0.7-1.1
				c0.2-0.4,0.3-0.9,0.3-1.4c0-0.5-0.1-0.9-0.3-1.3c-0.2-0.4-0.4-0.8-0.7-1.1c-0.3-0.3-0.7-0.6-1.1-0.8c-0.4-0.2-0.8-0.3-1.2-0.3
				c-0.5,0-0.9,0.1-1.3,0.3c-0.4,0.2-0.8,0.5-1.1,0.8c-0.3,0.3-0.6,0.7-0.7,1.1c-0.2,0.4-0.2,0.9-0.2,1.3c0,0.5,0.1,1,0.3,1.4
				c0.2,0.4,0.4,0.8,0.7,1.1c0.3,0.3,0.7,0.6,1,0.7C45.3-335,45.7-334.9,46.2-334.9z M30.6-334.8l9.4-11.5l9.2-11.8l1.2,1L41-345.5
				l-9.2,11.8L30.6-334.8z"/>
		</g>
	</g>
</g>
<g>
	<defs>
		<rect id="SVGID_1_" x="276.7" width="269.3" height="352.1"/>
	</defs>
	<clipPath id="SVGID_00000014591891116426498820000003578871032653544853_">
		<use xlink:href="#SVGID_1_"  style="overflow:visible;"/>
	</clipPath>
	<g style="clip-path:url(#SVGID_00000014591891116426498820000003578871032653544853_);">
		<g>
			<defs>
				<path id="SVGID_00000002349381628834526000000004272070097309708717_" d="M369.7,0c3.4,0,6.8,0.1,10.1,0.3
					c3.4,0.2,6.7,0.5,10.1,0.9c3.4,0.4,6.7,0.9,10,1.5c3.3,0.6,6.6,1.3,9.9,2c3.3,0.8,6.5,1.6,9.8,2.6c3.2,1,6.4,2,9.6,3.2
					s6.3,2.4,9.4,3.7c3.1,1.3,6.2,2.7,9.2,4.2c3,1.5,6,3.1,8.9,4.8c2.9,1.7,5.8,3.4,8.6,5.3c2.8,1.8,5.6,3.8,8.3,5.8
					c2.7,2,5.4,4.1,8,6.2c2.6,2.2,5.1,4.4,7.6,6.7s4.9,4.7,7.2,7.1c2.3,2.4,4.6,4.9,6.8,7.5c2.2,2.6,4.3,5.2,6.3,7.9
					c2,2.7,4,5.4,5.9,8.2c1.9,2.8,3.7,5.7,5.4,8.6c1.7,2.9,3.3,5.9,4.9,8.9c1.5,3,3,6.1,4.4,9.1c1.4,3.1,2.6,6.2,3.8,9.4
					c1.2,3.2,2.3,6.4,3.3,9.6s1.9,6.5,2.7,9.8c0.8,3.3,1.5,6.6,2.2,9.9c0.6,3.3,1.1,6.7,1.6,10c0.4,3.3,0.8,6.7,1,10.1
					c0.2,3.4,0.4,6.7,0.4,10.1c0,3.4,0,6.8-0.2,10.1c-0.2,3.4-0.4,6.7-0.8,10.1c-0.3,3.4-0.8,6.7-1.3,10c-0.5,3.3-1.2,6.6-1.9,9.9
					c-0.7,3.3-1.6,6.6-2.5,9.8c-0.9,3.2-1.9,6.5-3,9.7c-1.1,3.2-2.3,6.3-3.6,9.5c-1.3,3.1-2.7,6.2-4.1,9.2c-1.5,3-3,6-4.7,9
					c-1.6,3-3.4,5.9-5.2,8.7c-1.8,2.8-3.7,5.6-5.7,8.4c-2,2.7-4,5.4-6.1,8.1s-4.3,5.2-6.6,7.7c-2.3,2.5-4.6,4.9-7,7.3
					c-2.4,2.4-4.9,4.7-7.4,6.9c-2.5,2.2-5.2,4.4-7.8,6.4c-2.7,2.1-5.4,4.1-8.2,6c-2.8,1.9-5.6,3.7-8.5,5.5c-2.9,1.8-5.8,3.4-8.8,5
					s-6,3.1-9.1,4.5c-3.1,1.4-6.2,2.7-9.3,3.9c-3.1,1.2-6.3,2.4-9.5,3.4c-3.2,1-6.4,2-9.7,2.8c-3.3,0.9-6.6,1.6-9.9,2.3
					c-3.3,0.7-6.6,1.2-10,1.7c-3.3,0.5-6.7,0.8-10.1,1.1c-3.4,0.3-6.7,0.5-10.1,0.5s-6.8,0.1-10.1,0c-3.4-0.1-6.7-0.3-10.1-0.6
					c-3.4-0.3-6.7-0.7-10.1-1.2s-6.7-1.1-10-1.8c-3.3-0.7-6.6-1.5-9.8-2.4c-3.3-0.9-6.5-1.9-9.7-2.9s-6.4-2.2-9.5-3.5
					c-3.1-1.3-6.2-2.6-9.3-4c-3.1-1.4-6.1-2.9-9-4.6c-3-1.6-5.9-3.3-8.8-5.1l46.1-74.7c2.9,1.8,5.8,3.4,8.9,4.8
					c3.1,1.4,6.2,2.7,9.4,3.8s6.5,1.9,9.8,2.6c3.3,0.7,6.6,1.2,10,1.5s6.7,0.4,10.1,0.3c3.4-0.1,6.7-0.4,10.1-0.8
					c3.3-0.5,6.7-1.1,9.9-2c3.3-0.9,6.5-1.9,9.6-3.1c3.2-1.2,6.2-2.6,9.2-4.2c3-1.6,5.9-3.3,8.7-5.2c2.8-1.9,5.5-4,8-6.2
					c2.5-2.2,5-4.6,7.2-7.1c2.3-2.5,4.4-5.1,6.4-7.9c2-2.7,3.8-5.6,5.4-8.5c1.6-3,3.1-6,4.4-9.1s2.4-6.3,3.3-9.6s1.7-6.5,2.2-9.9
					c0.5-3.3,0.9-6.7,1-10.1c0.2-3.4,0.1-6.8-0.1-10.1c-0.2-3.4-0.7-6.7-1.3-10c-0.6-3.3-1.4-6.6-2.4-9.8c-1-3.2-2.2-6.4-3.6-9.5
					c-1.4-3.1-2.9-6.1-4.6-9c-1.7-2.9-3.6-5.7-5.6-8.4c-2-2.7-4.2-5.3-6.6-7.7c-2.3-2.4-4.8-4.7-7.4-6.9c-2.6-2.2-5.3-4.2-8.2-6
					c-2.8-1.8-5.8-3.5-8.8-5c-3-1.5-6.1-2.8-9.3-4c-3.2-1.1-6.4-2.1-9.7-2.9c-3.3-0.8-6.6-1.4-10-1.7c-3.4-0.4-6.7-0.6-10.1-0.6V0z"
					/>
			</defs>
			<clipPath id="SVGID_00000170277904956140991890000010503726416533831829_">
				<use xlink:href="#SVGID_00000002349381628834526000000004272070097309708717_"  style="overflow:visible;"/>
			</clipPath>
			<g style="clip-path:url(#SVGID_00000170277904956140991890000010503726416533831829_);">
				<path class="st2" d="M194.3,0h350.9v350.9H194.3V0z"/>
			</g>
		</g>
	</g>
</g>
<g>
	<defs>
		<rect id="SVGID_00000161601346713044201180000016236093040319472804_" x="194" width="175.7" height="329.4"/>
	</defs>
	<clipPath id="SVGID_00000068674012766298168260000015027512286944936636_">
		<use xlink:href="#SVGID_00000161601346713044201180000016236093040319472804_"  style="overflow:visible;"/>
	</clipPath>
	<g style="clip-path:url(#SVGID_00000068674012766298168260000015027512286944936636_);">
		<g>
			<defs>
				<path id="SVGID_00000155124467536614530380000014755425603262732717_" d="M285.2,329.2c-8.5-4.7-16.5-10-24.1-16
					c-7.6-6-14.6-12.6-21.1-19.7c-6.5-7.2-12.4-14.8-17.6-22.9c-5.2-8.1-9.8-16.6-13.6-25.5c-3.8-8.9-6.9-18-9.3-27.4
					c-2.3-9.4-3.9-18.9-4.6-28.5c-0.8-9.6-0.7-19.3,0.1-28.9c0.8-9.6,2.5-19.1,4.9-28.5c2.4-9.4,5.6-18.5,9.5-27.3
					c3.9-8.8,8.5-17.3,13.8-25.4c5.3-8.1,11.2-15.7,17.8-22.8s13.7-13.6,21.3-19.5c7.6-5.9,15.7-11.2,24.2-15.8
					c8.5-4.6,17.3-8.5,26.5-11.6c9.1-3.1,18.5-5.5,28-7.1C350.4,0.8,360,0,369.7,0l0,87.7c-4.8,0-9.6,0.4-14.4,1.2
					c-4.8,0.8-9.4,2-14,3.5c-4.6,1.6-9,3.5-13.2,5.8c-4.2,2.3-8.3,4.9-12.1,7.9c-3.8,3-7.4,6.2-10.6,9.8c-3.3,3.5-6.2,7.3-8.9,11.4
					c-2.7,4-5,8.3-6.9,12.7c-2,4.4-3.5,9-4.7,13.7c-1.2,4.7-2,9.4-2.4,14.2c-0.4,4.8-0.4,9.6-0.1,14.5c0.4,4.8,1.2,9.6,2.3,14.3
					c1.2,4.7,2.7,9.3,4.6,13.7c1.9,4.4,4.2,8.7,6.8,12.7c2.6,4.1,5.6,7.9,8.8,11.5c3.3,3.6,6.8,6.9,10.6,9.9c3.8,3,7.8,5.7,12,8
					L285.2,329.2z"/>
			</defs>
			<clipPath id="SVGID_00000158006085998319636530000012820768008366040507_">
				<use xlink:href="#SVGID_00000155124467536614530380000014755425603262732717_"  style="overflow:visible;"/>
			</clipPath>
			<g style="clip-path:url(#SVGID_00000158006085998319636530000012820768008366040507_);">
				<path class="st5" d="M194.3,0h350.9v350.9H194.3V0z"/>
			</g>
		</g>
	</g>
</g>
</svg>
