<?xml version="1.0" encoding="utf-8"?>
<!-- Generator: Adobe Illustrator 27.4.1, SVG Export Plug-In . SVG Version: 6.00 Build 0)  -->
<svg version="1.1" id="Calque_1" xmlns="http://www.w3.org/2000/svg" xmlns:xlink="http://www.w3.org/1999/xlink" x="0px" y="0px"
	 viewBox="0 0 549.1 380.5" style="enable-background:new 0 0 549.1 380.5;" xml:space="preserve">
<style type="text/css">
	.st0{clip-path:url(#SVGID_00000019675198675258335710000004003291418453816466_);}
	.st1{clip-path:url(#SVGID_00000174585830234308021490000002214192849981223572_);}
	.st2{fill:#F00201;}
	.st3{clip-path:url(#SVGID_00000119077221505733252760000016258833436005442985_);}
	.st4{clip-path:url(#SVGID_00000018236096144925679640000004712514135075181217_);}
	.st5{clip-path:url(#SVGID_00000151532947395259213140000010904029030639192499_);}
	.st6{clip-path:url(#SVGID_00000006667240672966816320000013866424429924405173_);}
	.st7{fill:none;stroke:#000000;stroke-width:0.75;stroke-miterlimit:10;}
</style>
<g>
	<g transform="translate(117.460108, 421.377672)">
		<g>
			<path d="M30.4-44.2c0-0.5,0-1.1,0.1-1.6c0.1-0.5,0.3-1.1,0.5-1.6c0.3-0.5,0.7-1,1.2-1.5c0.5-0.5,1.2-0.9,2-1.4
				c0.4-0.2,0.9-0.5,1.4-0.7c0.5-0.2,0.9-0.5,1.3-0.7c0.4-0.3,0.8-0.6,1-0.9c0.3-0.3,0.4-0.8,0.4-1.2c0-0.3-0.1-0.6-0.2-0.9
				c-0.1-0.3-0.3-0.5-0.6-0.8c-0.2-0.2-0.6-0.4-1-0.5c-0.4-0.1-0.8-0.2-1.3-0.2c-0.5,0-1,0.1-1.4,0.2c-0.4,0.1-0.8,0.3-1.1,0.5
				c-0.3,0.2-0.6,0.4-0.8,0.6c-0.2,0.2-0.4,0.4-0.5,0.5l-1-1.1c0.1-0.1,0.3-0.3,0.5-0.5c0.3-0.2,0.6-0.5,1-0.7
				c0.4-0.2,0.9-0.5,1.5-0.7c0.6-0.2,1.2-0.3,1.9-0.3c0.7,0,1.3,0.1,1.9,0.3c0.6,0.2,1,0.5,1.4,0.8c0.4,0.3,0.7,0.7,0.9,1.2
				c0.2,0.4,0.3,0.9,0.3,1.4c0,0.6-0.1,1.2-0.4,1.6c-0.3,0.5-0.6,0.9-1,1.2c-0.4,0.3-0.8,0.6-1.3,0.9c-0.5,0.2-0.9,0.4-1.2,0.6
				c-0.5,0.2-1,0.5-1.4,0.7c-0.5,0.3-0.9,0.6-1.3,0.9c-0.4,0.3-0.7,0.7-0.9,1.1c-0.2,0.4-0.4,0.8-0.4,1.3h8.2v1.4H30.4z"/>
		</g>
	</g>
</g>
<g>
	<g transform="translate(126.508403, 421.377672)">
		<g>
			<path d="M45.2-51c0,1-0.1,2-0.4,2.8c-0.3,0.8-0.7,1.6-1.2,2.2c-0.5,0.6-1.1,1.1-1.9,1.5C41-44.2,40.3-44,39.4-44
				s-1.6-0.2-2.3-0.5c-0.7-0.3-1.3-0.8-1.9-1.5c-0.5-0.6-0.9-1.4-1.2-2.2c-0.3-0.9-0.4-1.8-0.4-2.8c0-1,0.1-1.9,0.4-2.8
				c0.3-0.9,0.7-1.6,1.2-2.2c0.5-0.6,1.1-1.1,1.9-1.5c0.7-0.4,1.5-0.5,2.3-0.5s1.6,0.2,2.3,0.5c0.7,0.3,1.3,0.8,1.9,1.5
				c0.5,0.6,0.9,1.4,1.2,2.2C45.1-53,45.2-52,45.2-51z M43.7-51c0-0.8-0.1-1.6-0.3-2.3c-0.2-0.7-0.5-1.3-0.9-1.7
				c-0.4-0.5-0.8-0.9-1.3-1.1c-0.5-0.3-1.1-0.4-1.7-0.4c-0.6,0-1.2,0.1-1.7,0.4c-0.5,0.3-1,0.6-1.3,1.1c-0.4,0.5-0.6,1.1-0.9,1.7
				c-0.2,0.7-0.3,1.4-0.3,2.3c0,0.8,0.1,1.6,0.3,2.3c0.2,0.7,0.5,1.3,0.9,1.7c0.4,0.5,0.8,0.9,1.3,1.1c0.5,0.3,1.1,0.4,1.7,0.4
				c0.6,0,1.2-0.1,1.7-0.4c0.5-0.3,1-0.6,1.3-1.1c0.4-0.5,0.7-1.1,0.9-1.7C43.6-49.4,43.7-50.2,43.7-51z"/>
		</g>
	</g>
</g>
<g>
	<g transform="translate(137.137104, 421.377672)">
		<g>
			<path d="M36.9-44.2c0-0.5,0-1.1,0.1-1.6c0.1-0.5,0.3-1.1,0.5-1.6c0.3-0.5,0.7-1,1.2-1.5c0.5-0.5,1.2-0.9,2-1.4
				c0.4-0.2,0.9-0.5,1.4-0.7c0.5-0.2,0.9-0.5,1.3-0.7c0.4-0.3,0.8-0.6,1-0.9c0.3-0.3,0.4-0.8,0.4-1.2c0-0.3-0.1-0.6-0.2-0.9
				c-0.1-0.3-0.3-0.5-0.6-0.8c-0.2-0.2-0.6-0.4-1-0.5c-0.4-0.1-0.8-0.2-1.3-0.2c-0.5,0-1,0.1-1.4,0.2c-0.4,0.1-0.8,0.3-1.1,0.5
				c-0.3,0.2-0.6,0.4-0.8,0.6c-0.2,0.2-0.4,0.4-0.5,0.5l-1-1.1c0.1-0.1,0.3-0.3,0.5-0.5c0.3-0.2,0.6-0.5,1-0.7
				c0.4-0.2,0.9-0.5,1.5-0.7c0.6-0.2,1.2-0.3,1.9-0.3c0.7,0,1.3,0.1,1.9,0.3c0.6,0.2,1,0.5,1.4,0.8c0.4,0.3,0.7,0.7,0.9,1.2
				c0.2,0.4,0.3,0.9,0.3,1.4c0,0.6-0.1,1.2-0.4,1.6c-0.3,0.5-0.6,0.9-1,1.2c-0.4,0.3-0.8,0.6-1.3,0.9c-0.5,0.2-0.9,0.4-1.2,0.6
				c-0.5,0.2-1,0.5-1.4,0.7c-0.5,0.3-0.9,0.6-1.3,0.9c-0.4,0.3-0.7,0.7-0.9,1.1c-0.2,0.4-0.4,0.8-0.4,1.3h8.2v1.4H36.9z"/>
		</g>
	</g>
</g>
<g>
	<g transform="translate(146.185398, 421.377672)">
		<g>
			<path d="M48.3-45.7v1.4h-7.8v-1.4h3.3v-9.9c-0.1,0.2-0.3,0.4-0.6,0.6c-0.3,0.2-0.6,0.4-1,0.6c-0.4,0.2-0.7,0.3-1.1,0.5
				c-0.4,0.1-0.7,0.2-1,0.2v-1.5c0.4,0,0.7-0.1,1.2-0.3c0.4-0.2,0.8-0.4,1.2-0.7c0.4-0.3,0.7-0.5,1-0.7c0.3-0.2,0.4-0.4,0.4-0.5h1.6
				v11.8H48.3z"/>
		</g>
	</g>
</g>
<g>
	<g transform="translate(210.776454, 421.377672)">
		<g>
			<path d="M100.3-44.2c0-0.5,0-1.1,0.1-1.6c0.1-0.5,0.3-1.1,0.5-1.6c0.3-0.5,0.7-1,1.2-1.5c0.5-0.5,1.2-0.9,2-1.4
				c0.4-0.2,0.9-0.5,1.4-0.7c0.5-0.2,0.9-0.5,1.3-0.7c0.4-0.3,0.8-0.6,1-0.9c0.3-0.3,0.4-0.8,0.4-1.2c0-0.3-0.1-0.6-0.2-0.9
				c-0.1-0.3-0.3-0.5-0.6-0.8c-0.2-0.2-0.6-0.4-1-0.5c-0.4-0.1-0.8-0.2-1.3-0.2c-0.5,0-1,0.1-1.4,0.2c-0.4,0.1-0.8,0.3-1.1,0.5
				c-0.3,0.2-0.6,0.4-0.8,0.6c-0.2,0.2-0.4,0.4-0.5,0.5l-1-1.1c0.1-0.1,0.3-0.3,0.5-0.5c0.3-0.2,0.6-0.5,1-0.7
				c0.4-0.2,0.9-0.5,1.5-0.7c0.6-0.2,1.2-0.3,1.9-0.3c0.7,0,1.3,0.1,1.9,0.3c0.6,0.2,1,0.5,1.4,0.8c0.4,0.3,0.7,0.7,0.9,1.2
				c0.2,0.4,0.3,0.9,0.3,1.4c0,0.6-0.1,1.2-0.4,1.6c-0.3,0.5-0.6,0.9-1,1.2c-0.4,0.3-0.8,0.6-1.3,0.9c-0.5,0.2-0.9,0.4-1.2,0.6
				c-0.5,0.2-1,0.5-1.4,0.7c-0.5,0.3-0.9,0.6-1.3,0.9c-0.4,0.3-0.7,0.7-0.9,1.1c-0.2,0.4-0.4,0.8-0.4,1.3h8.2v1.4H100.3z"/>
		</g>
	</g>
</g>
<g>
	<g transform="translate(219.824749, 421.377672)">
		<g>
			<path d="M115.2-51c0,1-0.1,2-0.4,2.8c-0.3,0.8-0.7,1.6-1.2,2.2c-0.5,0.6-1.1,1.1-1.9,1.5c-0.7,0.3-1.5,0.5-2.3,0.5
				s-1.6-0.2-2.3-0.5c-0.7-0.3-1.3-0.8-1.9-1.5c-0.5-0.6-0.9-1.4-1.2-2.2c-0.3-0.9-0.4-1.8-0.4-2.8c0-1,0.1-1.9,0.4-2.8
				c0.3-0.9,0.7-1.6,1.2-2.2c0.5-0.6,1.1-1.1,1.9-1.5c0.7-0.4,1.5-0.5,2.3-0.5s1.6,0.2,2.3,0.5c0.7,0.3,1.3,0.8,1.9,1.5
				c0.5,0.6,0.9,1.4,1.2,2.2C115.1-53,115.2-52,115.2-51z M113.6-51c0-0.8-0.1-1.6-0.3-2.3c-0.2-0.7-0.5-1.3-0.9-1.7
				c-0.4-0.5-0.8-0.9-1.3-1.1c-0.5-0.3-1.1-0.4-1.7-0.4s-1.2,0.1-1.7,0.4c-0.5,0.3-1,0.6-1.3,1.1c-0.4,0.5-0.6,1.1-0.9,1.7
				c-0.2,0.7-0.3,1.4-0.3,2.3c0,0.8,0.1,1.6,0.3,2.3c0.2,0.7,0.5,1.3,0.9,1.7c0.4,0.5,0.8,0.9,1.3,1.1c0.5,0.3,1.1,0.4,1.7,0.4
				s1.2-0.1,1.7-0.4c0.5-0.3,1-0.6,1.3-1.1c0.4-0.5,0.7-1.1,0.9-1.7C113.5-49.4,113.6-50.2,113.6-51z"/>
		</g>
	</g>
</g>
<g>
	<g transform="translate(230.45345, 421.377672)">
		<g>
			<path d="M106.9-44.2c0-0.5,0-1.1,0.1-1.6c0.1-0.5,0.3-1.1,0.5-1.6c0.3-0.5,0.7-1,1.2-1.5c0.5-0.5,1.2-0.9,2-1.4
				c0.4-0.2,0.9-0.5,1.4-0.7c0.5-0.2,0.9-0.5,1.3-0.7c0.4-0.3,0.8-0.6,1-0.9c0.3-0.3,0.4-0.8,0.4-1.2c0-0.3-0.1-0.6-0.2-0.9
				c-0.1-0.3-0.3-0.5-0.6-0.8c-0.2-0.2-0.6-0.4-1-0.5c-0.4-0.1-0.8-0.2-1.3-0.2c-0.5,0-1,0.1-1.4,0.2c-0.4,0.1-0.8,0.3-1.1,0.5
				c-0.3,0.2-0.6,0.4-0.8,0.6c-0.2,0.2-0.4,0.4-0.5,0.5l-1-1.1c0.1-0.1,0.3-0.3,0.5-0.5c0.3-0.2,0.6-0.5,1-0.7
				c0.4-0.2,0.9-0.5,1.5-0.7c0.6-0.2,1.2-0.3,1.9-0.3c0.7,0,1.3,0.1,1.9,0.3c0.6,0.2,1,0.5,1.4,0.8c0.4,0.3,0.7,0.7,0.9,1.2
				c0.2,0.4,0.3,0.9,0.3,1.4c0,0.6-0.1,1.2-0.4,1.6c-0.3,0.5-0.6,0.9-1,1.2c-0.4,0.3-0.8,0.6-1.3,0.9c-0.5,0.2-0.9,0.4-1.2,0.6
				c-0.5,0.2-1,0.5-1.4,0.7c-0.5,0.3-0.9,0.6-1.3,0.9c-0.4,0.3-0.7,0.7-0.9,1.1c-0.2,0.4-0.4,0.8-0.4,1.3h8.2v1.4H106.9z"/>
		</g>
	</g>
</g>
<g>
	<g transform="translate(239.501744, 421.377672)">
		<g>
			<path d="M109.9-44.2c0-0.5,0-1.1,0.1-1.6c0.1-0.5,0.3-1.1,0.5-1.6c0.3-0.5,0.7-1,1.2-1.5c0.5-0.5,1.2-0.9,2-1.4
				c0.4-0.2,0.9-0.5,1.4-0.7c0.5-0.2,0.9-0.5,1.3-0.7c0.4-0.3,0.8-0.6,1-0.9c0.3-0.3,0.4-0.8,0.4-1.2c0-0.3-0.1-0.6-0.2-0.9
				c-0.1-0.3-0.3-0.5-0.6-0.8c-0.2-0.2-0.6-0.4-1-0.5c-0.4-0.1-0.8-0.2-1.3-0.2c-0.5,0-1,0.1-1.4,0.2c-0.4,0.1-0.8,0.3-1.1,0.5
				c-0.3,0.2-0.6,0.4-0.8,0.6c-0.2,0.2-0.4,0.4-0.5,0.5l-1-1.1c0.1-0.1,0.3-0.3,0.5-0.5c0.3-0.2,0.6-0.5,1-0.7
				c0.4-0.2,0.9-0.5,1.5-0.7c0.6-0.2,1.2-0.3,1.9-0.3s1.3,0.1,1.9,0.3c0.6,0.2,1,0.5,1.4,0.8c0.4,0.3,0.7,0.7,0.9,1.2
				c0.2,0.4,0.3,0.9,0.3,1.4c0,0.6-0.1,1.2-0.4,1.6c-0.3,0.5-0.6,0.9-1,1.2c-0.4,0.3-0.8,0.6-1.3,0.9c-0.5,0.2-0.9,0.4-1.2,0.6
				c-0.5,0.2-1,0.5-1.4,0.7c-0.5,0.3-0.9,0.6-1.3,0.9c-0.4,0.3-0.7,0.7-0.9,1.1c-0.2,0.4-0.4,0.8-0.4,1.3h8.2v1.4H109.9z"/>
		</g>
	</g>
</g>
<g>
	<g transform="translate(304.769968, 421.377672)">
		<g>
			<path d="M170.5-44.2c0-0.5,0-1.1,0.1-1.6c0.1-0.5,0.3-1.1,0.5-1.6c0.3-0.5,0.7-1,1.2-1.5c0.5-0.5,1.2-0.9,2-1.4
				c0.4-0.2,0.9-0.5,1.4-0.7c0.5-0.2,0.9-0.5,1.3-0.7c0.4-0.3,0.8-0.6,1-0.9c0.3-0.3,0.4-0.8,0.4-1.2c0-0.3-0.1-0.6-0.2-0.9
				c-0.1-0.3-0.3-0.5-0.6-0.8c-0.2-0.2-0.6-0.4-1-0.5c-0.4-0.1-0.8-0.2-1.3-0.2c-0.5,0-1,0.1-1.4,0.2c-0.4,0.1-0.8,0.3-1.1,0.5
				c-0.3,0.2-0.6,0.4-0.8,0.6c-0.2,0.2-0.4,0.4-0.5,0.5l-1-1.1c0.1-0.1,0.3-0.3,0.5-0.5c0.3-0.2,0.6-0.5,1-0.7
				c0.4-0.2,0.9-0.5,1.5-0.7c0.6-0.2,1.2-0.3,1.9-0.3c0.7,0,1.3,0.1,1.9,0.3c0.6,0.2,1,0.5,1.4,0.8c0.4,0.3,0.7,0.7,0.9,1.2
				c0.2,0.4,0.3,0.9,0.3,1.4c0,0.6-0.1,1.2-0.4,1.6c-0.3,0.5-0.6,0.9-1,1.2c-0.4,0.3-0.8,0.6-1.3,0.9c-0.5,0.2-0.9,0.4-1.2,0.6
				c-0.5,0.2-1,0.5-1.4,0.7c-0.5,0.3-0.9,0.6-1.3,0.9c-0.4,0.3-0.7,0.7-0.9,1.1c-0.2,0.4-0.4,0.8-0.4,1.3h8.2v1.4H170.5z"/>
		</g>
	</g>
</g>
<g>
	<g transform="translate(313.818263, 421.377672)">
		<g>
			<path d="M185.3-51c0,1-0.1,2-0.4,2.8c-0.3,0.8-0.7,1.6-1.2,2.2c-0.5,0.6-1.1,1.1-1.9,1.5c-0.7,0.3-1.5,0.5-2.3,0.5
				c-0.8,0-1.6-0.2-2.3-0.5c-0.7-0.3-1.3-0.8-1.9-1.5c-0.5-0.6-0.9-1.4-1.2-2.2c-0.3-0.9-0.4-1.8-0.4-2.8c0-1,0.1-1.9,0.4-2.8
				c0.3-0.9,0.7-1.6,1.2-2.2c0.5-0.6,1.1-1.1,1.9-1.5c0.7-0.4,1.5-0.5,2.3-0.5c0.8,0,1.6,0.2,2.3,0.5c0.7,0.3,1.3,0.8,1.9,1.5
				c0.5,0.6,0.9,1.4,1.2,2.2C185.2-53,185.3-52,185.3-51z M183.7-51c0-0.8-0.1-1.6-0.3-2.3c-0.2-0.7-0.5-1.3-0.9-1.7
				c-0.4-0.5-0.8-0.9-1.3-1.1c-0.5-0.3-1.1-0.4-1.7-0.4c-0.6,0-1.2,0.1-1.7,0.4c-0.5,0.3-1,0.6-1.3,1.1c-0.4,0.5-0.6,1.1-0.9,1.7
				c-0.2,0.7-0.3,1.4-0.3,2.3c0,0.8,0.1,1.6,0.3,2.3c0.2,0.7,0.5,1.3,0.9,1.7c0.4,0.5,0.8,0.9,1.3,1.1c0.5,0.3,1.1,0.4,1.7,0.4
				c0.6,0,1.2-0.1,1.7-0.4c0.5-0.3,1-0.6,1.3-1.1c0.4-0.5,0.7-1.1,0.9-1.7C183.6-49.4,183.7-50.2,183.7-51z"/>
		</g>
	</g>
</g>
<g>
	<g transform="translate(324.446963, 421.377672)">
		<g>
			<path d="M177-44.2c0-0.5,0-1.1,0.1-1.6c0.1-0.5,0.3-1.1,0.5-1.6c0.3-0.5,0.7-1,1.2-1.5c0.5-0.5,1.2-0.9,2-1.4
				c0.4-0.2,0.9-0.5,1.4-0.7c0.5-0.2,0.9-0.5,1.3-0.7c0.4-0.3,0.8-0.6,1-0.9c0.3-0.3,0.4-0.8,0.4-1.2c0-0.3-0.1-0.6-0.2-0.9
				c-0.1-0.3-0.3-0.5-0.6-0.8c-0.2-0.2-0.6-0.4-1-0.5c-0.4-0.1-0.8-0.2-1.3-0.2c-0.5,0-1,0.1-1.4,0.2c-0.4,0.1-0.8,0.3-1.1,0.5
				c-0.3,0.2-0.6,0.4-0.8,0.6c-0.2,0.2-0.4,0.4-0.5,0.5l-1-1.1c0.1-0.1,0.3-0.3,0.5-0.5c0.3-0.2,0.6-0.5,1-0.7
				c0.4-0.2,0.9-0.5,1.5-0.7c0.6-0.2,1.2-0.3,1.9-0.3s1.3,0.1,1.9,0.3c0.6,0.2,1,0.5,1.4,0.8c0.4,0.3,0.7,0.7,0.9,1.2
				c0.2,0.4,0.3,0.9,0.3,1.4c0,0.6-0.1,1.2-0.4,1.6c-0.3,0.5-0.6,0.9-1,1.2c-0.4,0.3-0.8,0.6-1.3,0.9c-0.5,0.2-0.9,0.4-1.2,0.6
				c-0.5,0.2-1,0.5-1.4,0.7c-0.5,0.3-0.9,0.6-1.3,0.9c-0.4,0.3-0.7,0.7-0.9,1.1c-0.2,0.4-0.4,0.8-0.4,1.3h8.2v1.4H177z"/>
		</g>
	</g>
</g>
<g>
	<g transform="translate(333.495258, 421.377672)">
		<g>
			<path d="M186.9-49.7c1,0.2,1.8,0.6,2.5,1.4c0.6,0.7,0.9,1.7,0.9,2.8c0,0.7-0.1,1.3-0.4,1.9c-0.2,0.6-0.6,1.1-1.1,1.5
				c-0.5,0.4-1,0.7-1.7,1c-0.7,0.2-1.4,0.3-2.2,0.3c-1.2,0-2.2-0.2-3.1-0.7c-0.9-0.5-1.5-1.1-2-1.9l1.1-1c0.3,0.7,0.8,1.2,1.5,1.6
				c0.7,0.4,1.5,0.6,2.5,0.6c1.1,0,2.1-0.3,2.7-0.9c0.7-0.6,1-1.4,1-2.4c0-1.1-0.3-1.9-1-2.5c-0.7-0.6-1.7-0.9-3-0.9H184v-1.3h0.6
				c1.2,0,2.1-0.3,2.7-0.8c0.6-0.6,1-1.3,1-2.2c0-0.5-0.1-0.9-0.2-1.2c-0.2-0.4-0.4-0.7-0.7-0.9c-0.3-0.2-0.7-0.4-1.1-0.6
				c-0.4-0.1-0.8-0.2-1.3-0.2c-0.9,0-1.7,0.2-2.3,0.6c-0.7,0.4-1.2,0.9-1.5,1.6l-1-1c0.2-0.4,0.5-0.7,0.8-1.1
				c0.3-0.3,0.7-0.6,1.2-0.9c0.4-0.2,0.9-0.4,1.4-0.5c0.5-0.1,1.1-0.2,1.6-0.2c0.7,0,1.4,0.1,1.9,0.3c0.6,0.2,1.1,0.5,1.5,0.9
				c0.4,0.4,0.8,0.8,1,1.3c0.2,0.5,0.4,1.1,0.4,1.7c0,0.5-0.1,0.9-0.2,1.3c-0.1,0.4-0.3,0.8-0.6,1.1c-0.3,0.3-0.6,0.6-1,0.8
				C187.8-49.9,187.4-49.8,186.9-49.7z"/>
		</g>
	</g>
</g>
<g>
	<g transform="translate(49.331911, 155.78832)">
		<g>
			<path d="M-41-133.8v1.4h-7.8v-1.4h3.3v-9.9c-0.1,0.2-0.3,0.4-0.6,0.6c-0.3,0.2-0.6,0.4-1,0.6c-0.4,0.2-0.7,0.3-1.1,0.5
				c-0.4,0.1-0.7,0.2-1,0.2v-1.5c0.4,0,0.7-0.1,1.2-0.3c0.4-0.2,0.8-0.4,1.2-0.7c0.4-0.3,0.7-0.5,1-0.7c0.3-0.2,0.4-0.4,0.4-0.5h1.6
				v11.8H-41z"/>
		</g>
	</g>
</g>
<g>
	<g transform="translate(56.765053, 155.78832)">
		<g>
			<path d="M-35-139.1c0,1-0.1,2-0.4,2.8c-0.3,0.8-0.7,1.6-1.2,2.2c-0.5,0.6-1.1,1.1-1.9,1.5c-0.7,0.3-1.5,0.5-2.3,0.5
				c-0.8,0-1.6-0.2-2.3-0.5c-0.7-0.3-1.3-0.8-1.9-1.5c-0.5-0.6-0.9-1.4-1.2-2.2c-0.3-0.9-0.4-1.8-0.4-2.8c0-1,0.1-1.9,0.4-2.8
				c0.3-0.9,0.7-1.6,1.2-2.2c0.5-0.6,1.1-1.1,1.9-1.5c0.7-0.4,1.5-0.5,2.3-0.5c0.8,0,1.6,0.2,2.3,0.5c0.7,0.3,1.3,0.8,1.9,1.5
				c0.5,0.6,0.9,1.4,1.2,2.2C-35.2-141.1-35-140.1-35-139.1z M-36.6-139.1c0-0.8-0.1-1.6-0.3-2.3c-0.2-0.7-0.5-1.3-0.9-1.7
				c-0.4-0.5-0.8-0.9-1.3-1.1c-0.5-0.3-1.1-0.4-1.7-0.4c-0.6,0-1.2,0.1-1.7,0.4c-0.5,0.3-1,0.6-1.3,1.1c-0.4,0.5-0.6,1.1-0.9,1.7
				c-0.2,0.7-0.3,1.4-0.3,2.3c0,0.8,0.1,1.6,0.3,2.3c0.2,0.7,0.5,1.3,0.9,1.7c0.4,0.5,0.8,0.9,1.3,1.1c0.5,0.3,1.1,0.4,1.7,0.4
				c0.6,0,1.2-0.1,1.7-0.4c0.5-0.3,1-0.6,1.3-1.1c0.4-0.5,0.7-1.1,0.9-1.7C-36.7-137.5-36.6-138.3-36.6-139.1z"/>
		</g>
	</g>
</g>
<g>
	<g transform="translate(67.393754, 155.78832)">
		<g>
			<path d="M-31.5-139.1c0,1-0.1,2-0.4,2.8c-0.3,0.8-0.7,1.6-1.2,2.2c-0.5,0.6-1.1,1.1-1.9,1.5c-0.7,0.3-1.5,0.5-2.3,0.5
				c-0.8,0-1.6-0.2-2.3-0.5c-0.7-0.3-1.3-0.8-1.9-1.5c-0.5-0.6-0.9-1.4-1.2-2.2c-0.3-0.9-0.4-1.8-0.4-2.8c0-1,0.1-1.9,0.4-2.8
				c0.3-0.9,0.7-1.6,1.2-2.2c0.5-0.6,1.1-1.1,1.9-1.5c0.7-0.4,1.5-0.5,2.3-0.5c0.8,0,1.6,0.2,2.3,0.5c0.7,0.3,1.3,0.8,1.9,1.5
				c0.5,0.6,0.9,1.4,1.2,2.2C-31.7-141.1-31.5-140.1-31.5-139.1z M-33.1-139.1c0-0.8-0.1-1.6-0.3-2.3c-0.2-0.7-0.5-1.3-0.9-1.7
				c-0.4-0.5-0.8-0.9-1.3-1.1c-0.5-0.3-1.1-0.4-1.7-0.4c-0.6,0-1.2,0.1-1.7,0.4c-0.5,0.3-1,0.6-1.3,1.1c-0.4,0.5-0.6,1.1-0.9,1.7
				c-0.2,0.7-0.3,1.4-0.3,2.3c0,0.8,0.1,1.6,0.3,2.3c0.2,0.7,0.5,1.3,0.9,1.7c0.4,0.5,0.8,0.9,1.3,1.1c0.5,0.3,1.1,0.4,1.7,0.4
				c0.6,0,1.2-0.1,1.7-0.4c0.5-0.3,1-0.6,1.3-1.1c0.4-0.5,0.7-1.1,0.9-1.7C-33.2-137.5-33.1-138.3-33.1-139.1z"/>
		</g>
	</g>
</g>
<g>
	<g transform="translate(78.022455, 155.78832)">
		<g>
			<path d="M-24.3-132.3v-13.5l-6,10.4h-0.9l-6-10.4v13.5h-1.6v-16.4h1.7l6.4,11.3l6.5-11.3h1.6v16.4H-24.3z"/>
		</g>
	</g>
</g>
<g>
	<g transform="translate(93.250194, 155.78832)">
	</g>
</g>
<g>
	<g transform="translate(59.265411, 217.435935)">
		<g>
			<path d="M-37.4-123.9h-8.9v-1.5h11.4l-8.3,16.4h-1.8L-37.4-123.9z"/>
		</g>
	</g>
</g>
<g>
	<g transform="translate(68.556842, 217.435935)">
		<g>
			<path d="M-37.6-119.1c0.8,0,1.5,0.1,2.1,0.4c0.7,0.2,1.2,0.6,1.7,1.1c0.5,0.5,0.9,1,1.1,1.7c0.3,0.6,0.4,1.3,0.4,2.1
				c0,0.8-0.2,1.6-0.5,2.2c-0.3,0.7-0.7,1.3-1.2,1.7c-0.5,0.5-1.1,0.8-1.8,1.1c-0.7,0.3-1.4,0.4-2.2,0.4c-0.6,0-1.1-0.1-1.7-0.2
				c-0.5-0.1-1-0.3-1.5-0.6c-0.4-0.3-0.8-0.6-1.2-1c-0.4-0.4-0.7-0.8-0.9-1.3l1-0.8c0.4,0.7,1,1.4,1.8,1.8c0.7,0.5,1.6,0.7,2.5,0.7
				c0.6,0,1.1-0.1,1.6-0.3c0.5-0.2,0.9-0.5,1.3-0.8c0.4-0.3,0.7-0.8,0.9-1.2c0.2-0.5,0.3-1,0.3-1.6c0-0.6-0.1-1.1-0.3-1.5
				c-0.2-0.5-0.5-0.9-0.8-1.2c-0.3-0.3-0.8-0.6-1.2-0.8c-0.5-0.2-1-0.3-1.5-0.3c-0.7,0-1.4,0.2-2,0.5c-0.6,0.3-1.2,0.8-1.6,1.4h-1.5
				c0-0.1,0-0.3,0.1-0.6c0.1-0.3,0.1-0.7,0.2-1.2c0.1-0.4,0.2-0.9,0.3-1.5c0.1-0.6,0.2-1.1,0.3-1.7c0.3-1.3,0.5-2.7,0.9-4.3h7.9v1.5
				h-6.8l-1.1,5.9c0.4-0.4,0.9-0.8,1.5-1C-38.9-119-38.3-119.1-37.6-119.1z"/>
		</g>
	</g>
</g>
<g>
	<g transform="translate(78.021945, 217.435935)">
		<g>
			<path d="M-24.3-111.9v-13.5l-6,10.4h-0.9l-6-10.4v13.5h-1.6v-16.4h1.7l6.4,11.3l6.5-11.3h1.6v16.4H-24.3z"/>
		</g>
	</g>
</g>
<g>
	<g transform="translate(93.246517, 217.435935)">
	</g>
</g>
<g>
	<g transform="translate(57.92392, 279.083538)">
		<g>
			<path d="M-41.1-98.7c0.8,0,1.5,0.1,2.1,0.4c0.7,0.2,1.2,0.6,1.7,1.1c0.5,0.5,0.9,1,1.1,1.7c0.3,0.6,0.4,1.3,0.4,2.1
				c0,0.8-0.2,1.6-0.5,2.2c-0.3,0.7-0.7,1.3-1.2,1.7c-0.5,0.5-1.1,0.8-1.8,1.1c-0.7,0.3-1.4,0.4-2.2,0.4c-0.6,0-1.1-0.1-1.7-0.2
				c-0.5-0.1-1-0.3-1.5-0.6c-0.4-0.3-0.8-0.6-1.2-1c-0.4-0.4-0.7-0.8-0.9-1.3l1-0.8c0.4,0.7,1,1.4,1.8,1.8c0.7,0.5,1.6,0.7,2.5,0.7
				c0.6,0,1.1-0.1,1.6-0.3c0.5-0.2,0.9-0.5,1.3-0.8c0.4-0.3,0.7-0.8,0.9-1.2c0.2-0.5,0.3-1,0.3-1.6c0-0.6-0.1-1.1-0.3-1.5
				c-0.2-0.5-0.5-0.9-0.8-1.2c-0.3-0.3-0.8-0.6-1.2-0.8c-0.5-0.2-1-0.3-1.5-0.3c-0.7,0-1.4,0.2-2,0.5c-0.6,0.3-1.2,0.8-1.6,1.4h-1.5
				c0-0.1,0-0.3,0.1-0.6c0.1-0.3,0.1-0.7,0.2-1.2c0.1-0.4,0.2-0.9,0.3-1.5c0.1-0.6,0.2-1.1,0.3-1.7c0.3-1.3,0.5-2.7,0.9-4.3h7.9v1.5
				h-6.8l-1.1,5.9c0.4-0.4,0.9-0.8,1.5-1C-42.5-98.5-41.8-98.7-41.1-98.7z"/>
		</g>
	</g>
</g>
<g>
	<g transform="translate(67.389023, 279.083538)">
		<g>
			<path d="M-31.5-98.2c0,1-0.1,2-0.4,2.8c-0.3,0.8-0.7,1.6-1.2,2.2c-0.5,0.6-1.1,1.1-1.9,1.5c-0.7,0.3-1.5,0.5-2.3,0.5
				s-1.6-0.2-2.3-0.5c-0.7-0.3-1.3-0.8-1.9-1.5c-0.5-0.6-0.9-1.4-1.2-2.2c-0.3-0.9-0.4-1.8-0.4-2.8c0-1,0.1-1.9,0.4-2.8
				c0.3-0.9,0.7-1.6,1.2-2.2c0.5-0.6,1.1-1.1,1.9-1.5c0.7-0.4,1.5-0.5,2.3-0.5s1.6,0.2,2.3,0.5c0.7,0.3,1.3,0.8,1.9,1.5
				c0.5,0.6,0.9,1.4,1.2,2.2C-31.7-100.2-31.5-99.2-31.5-98.2z M-33.1-98.2c0-0.8-0.1-1.6-0.3-2.3c-0.2-0.7-0.5-1.3-0.9-1.7
				c-0.4-0.5-0.8-0.9-1.3-1.1c-0.5-0.3-1.1-0.4-1.7-0.4c-0.6,0-1.2,0.1-1.7,0.4c-0.5,0.3-1,0.6-1.3,1.1c-0.4,0.5-0.6,1.1-0.9,1.7
				c-0.2,0.7-0.3,1.4-0.3,2.3s0.1,1.6,0.3,2.3c0.2,0.7,0.5,1.3,0.9,1.7c0.4,0.5,0.8,0.9,1.3,1.1c0.5,0.3,1.1,0.4,1.7,0.4
				c0.6,0,1.2-0.1,1.7-0.4c0.5-0.3,1-0.6,1.3-1.1c0.4-0.5,0.7-1.1,0.9-1.7C-33.2-96.6-33.1-97.4-33.1-98.2z"/>
		</g>
	</g>
</g>
<g>
	<g transform="translate(78.017724, 279.083538)">
		<g>
			<path d="M-24.3-91.4v-13.5l-6,10.4h-0.9l-6-10.4v13.5h-1.6v-16.4h1.7l6.4,11.3l6.5-11.3h1.6v16.4H-24.3z"/>
		</g>
	</g>
</g>
<g>
	<g transform="translate(93.245902, 279.083538)">
	</g>
</g>
<g>
	<g transform="translate(59.501134, 340.731123)">
		<g>
			<path d="M-46-71c0-0.5,0-1.1,0.1-1.6c0.1-0.5,0.3-1.1,0.5-1.6c0.3-0.5,0.7-1,1.2-1.5c0.5-0.5,1.2-0.9,2-1.4
				c0.4-0.2,0.9-0.5,1.4-0.7c0.5-0.2,0.9-0.5,1.3-0.7c0.4-0.3,0.8-0.6,1-0.9c0.3-0.3,0.4-0.8,0.4-1.2c0-0.3-0.1-0.6-0.2-0.9
				c-0.1-0.3-0.3-0.5-0.6-0.8c-0.2-0.2-0.6-0.4-1-0.5c-0.4-0.1-0.8-0.2-1.3-0.2c-0.5,0-1,0.1-1.4,0.2c-0.4,0.1-0.8,0.3-1.1,0.5
				c-0.3,0.2-0.6,0.4-0.8,0.6c-0.2,0.2-0.4,0.4-0.5,0.5l-1-1.1c0.1-0.1,0.3-0.3,0.5-0.5c0.3-0.2,0.6-0.5,1-0.7
				c0.4-0.2,0.9-0.5,1.5-0.7c0.6-0.2,1.2-0.3,1.9-0.3c0.7,0,1.3,0.1,1.9,0.3c0.6,0.2,1,0.5,1.4,0.8c0.4,0.3,0.7,0.7,0.9,1.2
				c0.2,0.4,0.3,0.9,0.3,1.4c0,0.6-0.1,1.2-0.4,1.6c-0.3,0.5-0.6,0.9-1,1.2c-0.4,0.3-0.8,0.6-1.3,0.9c-0.5,0.2-0.9,0.4-1.2,0.6
				c-0.5,0.2-1,0.5-1.4,0.7c-0.5,0.3-0.9,0.6-1.3,0.9c-0.4,0.3-0.7,0.7-0.9,1.1c-0.2,0.4-0.4,0.8-0.4,1.3h8.2v1.4H-46z"/>
		</g>
	</g>
</g>
<g>
	<g transform="translate(68.549428, 340.731123)">
		<g>
			<path d="M-37.6-78.2c0.8,0,1.5,0.1,2.1,0.4c0.7,0.2,1.2,0.6,1.7,1.1c0.5,0.5,0.9,1,1.1,1.7c0.3,0.6,0.4,1.3,0.4,2.1
				c0,0.8-0.2,1.6-0.5,2.2c-0.3,0.7-0.7,1.3-1.2,1.7c-0.5,0.5-1.1,0.8-1.8,1.1c-0.7,0.3-1.4,0.4-2.2,0.4c-0.6,0-1.1-0.1-1.7-0.2
				c-0.5-0.1-1-0.3-1.5-0.6c-0.4-0.3-0.8-0.6-1.2-1c-0.4-0.4-0.7-0.8-0.9-1.3l1-0.8c0.4,0.7,1,1.4,1.8,1.8c0.7,0.5,1.6,0.7,2.5,0.7
				c0.6,0,1.1-0.1,1.6-0.3c0.5-0.2,0.9-0.5,1.3-0.8c0.4-0.3,0.7-0.8,0.9-1.2c0.2-0.5,0.3-1,0.3-1.6c0-0.6-0.1-1.1-0.3-1.5
				c-0.2-0.5-0.5-0.9-0.8-1.2c-0.3-0.3-0.8-0.6-1.2-0.8c-0.5-0.2-1-0.3-1.5-0.3c-0.7,0-1.4,0.2-2,0.5c-0.6,0.3-1.2,0.8-1.6,1.4h-1.5
				c0-0.1,0-0.3,0.1-0.6c0.1-0.3,0.1-0.7,0.2-1.2c0.1-0.4,0.2-0.9,0.3-1.5c0.1-0.6,0.2-1.1,0.3-1.7c0.3-1.3,0.5-2.7,0.9-4.3h7.9v1.5
				h-6.8l-1.1,5.9c0.4-0.4,0.9-0.8,1.5-1C-38.9-78.1-38.3-78.2-37.6-78.2z"/>
		</g>
	</g>
</g>
<g>
	<g transform="translate(78.014531, 340.731123)">
		<g>
			<path d="M-24.3-71v-13.5l-6,10.4h-0.9l-6-10.4V-71h-1.6v-16.4h1.7l6.4,11.3l6.5-11.3h1.6V-71H-24.3z"/>
		</g>
	</g>
</g>
<g>
	<g transform="translate(93.243453, 340.731123)">
	</g>
</g>
<g>
	<g transform="translate(67.396381, 402.378738)">
		<g>
			<path d="M-31.5-57.3c0,1-0.1,2-0.4,2.8c-0.3,0.8-0.7,1.6-1.2,2.2c-0.5,0.6-1.1,1.1-1.9,1.5c-0.7,0.3-1.5,0.5-2.3,0.5
				c-0.8,0-1.6-0.2-2.3-0.5c-0.7-0.3-1.3-0.8-1.9-1.5c-0.5-0.6-0.9-1.4-1.2-2.2c-0.3-0.9-0.4-1.8-0.4-2.8c0-1,0.1-1.9,0.4-2.8
				c0.3-0.9,0.7-1.6,1.2-2.2c0.5-0.6,1.1-1.1,1.9-1.5c0.7-0.4,1.5-0.5,2.3-0.5c0.8,0,1.6,0.2,2.3,0.5c0.7,0.3,1.3,0.8,1.9,1.5
				c0.5,0.6,0.9,1.4,1.2,2.2C-31.7-59.3-31.5-58.3-31.5-57.3z M-33.1-57.3c0-0.8-0.1-1.6-0.3-2.3c-0.2-0.7-0.5-1.3-0.9-1.7
				c-0.4-0.5-0.8-0.9-1.3-1.1c-0.5-0.3-1.1-0.4-1.7-0.4c-0.6,0-1.2,0.1-1.7,0.4c-0.5,0.3-1,0.6-1.3,1.1c-0.4,0.5-0.6,1.1-0.9,1.7
				c-0.2,0.7-0.3,1.4-0.3,2.3c0,0.8,0.1,1.6,0.3,2.3c0.2,0.7,0.5,1.3,0.9,1.7c0.4,0.5,0.8,0.9,1.3,1.1c0.5,0.3,1.1,0.4,1.7,0.4
				c0.6,0,1.2-0.1,1.7-0.4c0.5-0.3,1-0.6,1.3-1.1c0.4-0.5,0.7-1.1,0.9-1.7C-33.2-55.7-33.1-56.5-33.1-57.3z"/>
		</g>
	</g>
</g>
<g>
	<g transform="translate(78.025082, 402.378738)">
		<g>
			<path d="M-24.3-50.5V-64l-6,10.4h-0.9l-6-10.4v13.5h-1.6V-67h1.7l6.4,11.3l6.5-11.3h1.6v16.4H-24.3z"/>
		</g>
	</g>
</g>
<g>
	<g transform="translate(93.249574, 402.378738)">
	</g>
</g>
<g>
	<defs>
		<rect id="SVGID_1_" x="132" y="145.5" width="78.1" height="198.8"/>
	</defs>
	<clipPath id="SVGID_00000155850314748097281640000015252094680715565981_">
		<use xlink:href="#SVGID_1_"  style="overflow:visible;"/>
	</clipPath>
	<g style="clip-path:url(#SVGID_00000155850314748097281640000015252094680715565981_);">
		<g>
			<defs>
				<path id="SVGID_00000027567634635398669230000018412700049583565191_" d="M132,343.6V152.4c0-3.4,2.8-6.2,6.2-6.2h65.3
					c1.6,0,3.2,0.7,4.4,1.8c1.2,1.2,1.8,2.7,1.8,4.4v191.2H132"/>
			</defs>
			<clipPath id="SVGID_00000034793228213127457320000011796862878807304369_">
				<use xlink:href="#SVGID_00000027567634635398669230000018412700049583565191_"  style="overflow:visible;"/>
			</clipPath>
			<g style="clip-path:url(#SVGID_00000034793228213127457320000011796862878807304369_);">
				<path class="st2" d="M132,64.1h328.7v279.4H132V64.1z"/>
			</g>
		</g>
	</g>
</g>
<g>
	<defs>
		<rect id="SVGID_00000180324291574212721850000016496219627458309048_" x="296.3" y="136.1" width="78" height="208.2"/>
	</defs>
	<clipPath id="SVGID_00000068644100920194735430000016936821776573050294_">
		<use xlink:href="#SVGID_00000180324291574212721850000016496219627458309048_"  style="overflow:visible;"/>
	</clipPath>
	<g style="clip-path:url(#SVGID_00000068644100920194735430000016936821776573050294_);">
		<g>
			<defs>
				<path id="SVGID_00000029044230324034427350000007639332406792854675_" d="M296.4,343.6v-201c0-1.6,0.7-3.2,1.8-4.4
					c1.2-1.2,2.7-1.8,4.4-1.8h65.3c1.6,0,3.2,0.7,4.4,1.8c1.2,1.2,1.8,2.7,1.8,4.4v201H296.4"/>
			</defs>
			<clipPath id="SVGID_00000082360379610874556540000017351145989606064818_">
				<use xlink:href="#SVGID_00000029044230324034427350000007639332406792854675_"  style="overflow:visible;"/>
			</clipPath>
			<g style="clip-path:url(#SVGID_00000082360379610874556540000017351145989606064818_);">
				<path class="st2" d="M171.1,64.1h328.7v279.4H171.1V64.1z"/>
			</g>
		</g>
	</g>
</g>
<g>
	<defs>
		<rect id="SVGID_00000029045117440778444450000010609074967809545144_" x="460.5" y="64.1" width="78" height="280.2"/>
	</defs>
	<clipPath id="SVGID_00000162352035547370769840000009702615515666358460_">
		<use xlink:href="#SVGID_00000029045117440778444450000010609074967809545144_"  style="overflow:visible;"/>
	</clipPath>
	<g style="clip-path:url(#SVGID_00000162352035547370769840000009702615515666358460_);">
		<g>
			<defs>
				<path id="SVGID_00000152950222645269436040000004366958144606291598_" d="M460.7,343.6V70.3c0-3.4,2.8-6.2,6.2-6.2h65.3
					c1.6,0,3.2,0.7,4.4,1.8c1.2,1.2,1.8,2.7,1.8,4.4v273.3H460.7"/>
			</defs>
			<clipPath id="SVGID_00000080176376669317508490000007464513975701270167_">
				<use xlink:href="#SVGID_00000152950222645269436040000004366958144606291598_"  style="overflow:visible;"/>
			</clipPath>
			<g style="clip-path:url(#SVGID_00000080176376669317508490000007464513975701270167_);">
				<path class="st2" d="M210,64.1h328.7v279.4H210V64.1z"/>
			</g>
		</g>
	</g>
</g>
<line class="st7" x1="72.1" y1="7" x2="72.1" y2="344.3"/>
<line class="st7" x1="549.1" y1="344.3" x2="72.1" y2="344.3"/>
</svg>
