<?xml version="1.0" encoding="utf-8"?>
<!-- Generator: Adobe Illustrator 27.4.1, SVG Export Plug-In . SVG Version: 6.00 Build 0)  -->
<svg version="1.1" id="Calque_1" xmlns="http://www.w3.org/2000/svg" xmlns:xlink="http://www.w3.org/1999/xlink" x="0px" y="0px"
	 viewBox="0 0 534 362" style="enable-background:new 0 0 534 362;" xml:space="preserve">
<style type="text/css">
	.st0{clip-path:url(#SVGID_00000039094159228170739690000006961196026132543618_);}
	.st1{clip-path:url(#SVGID_00000064348267109388135740000010544542142684015256_);}
	.st2{fill:#F00201;}
	.st3{clip-path:url(#SVGID_00000005947460989548373300000005897659871865075633_);}
	.st4{clip-path:url(#SVGID_00000042706419147752094720000010838105509128696219_);}
	.st5{clip-path:url(#SVGID_00000105390124896812996220000015716684690036162176_);}
	.st6{clip-path:url(#SVGID_00000163754912105707621700000011356005166251504274_);}
	.st7{fill:none;stroke:#000000;stroke-width:0.75;stroke-miterlimit:10;}
</style>
<g>
	<g transform="translate(128.650732, 405.272738)">
		<g>
			<path d="M19.2-47.6c0-0.6,0.1-1.2,0.2-1.9c0.1-0.6,0.3-1.2,0.6-1.9c0.3-0.6,0.8-1.2,1.4-1.8c0.6-0.6,1.4-1.1,2.4-1.6
				c0.5-0.3,1.1-0.5,1.6-0.8c0.6-0.3,1.1-0.6,1.6-0.9c0.5-0.3,0.9-0.7,1.2-1.1c0.3-0.4,0.5-0.9,0.5-1.4c0-0.3-0.1-0.7-0.2-1
				c-0.2-0.3-0.4-0.6-0.7-0.9c-0.3-0.3-0.7-0.5-1.1-0.6c-0.4-0.2-1-0.2-1.6-0.2c-0.6,0-1.1,0.1-1.6,0.3c-0.5,0.2-0.9,0.4-1.2,0.6
				c-0.3,0.2-0.6,0.5-0.9,0.7c-0.2,0.3-0.4,0.5-0.6,0.6l-1.2-1.3c0.1-0.1,0.3-0.3,0.6-0.6c0.3-0.3,0.7-0.6,1.2-0.9
				c0.5-0.3,1.1-0.5,1.7-0.8c0.7-0.2,1.4-0.4,2.2-0.4c0.8,0,1.6,0.1,2.2,0.4c0.7,0.2,1.2,0.5,1.6,0.9c0.5,0.4,0.8,0.8,1,1.4
				c0.2,0.5,0.4,1.1,0.4,1.6c0,0.7-0.2,1.4-0.5,1.9c-0.3,0.5-0.7,1-1.2,1.4c-0.5,0.4-1,0.7-1.5,1c-0.5,0.3-1,0.5-1.5,0.7
				c-0.6,0.2-1.2,0.5-1.7,0.9c-0.5,0.3-1,0.7-1.5,1c-0.4,0.4-0.8,0.8-1.1,1.3c-0.3,0.5-0.4,1-0.4,1.6h9.6v1.7H19.2z"/>
		</g>
	</g>
</g>
<g>
	<g transform="translate(139.241004, 405.272738)">
		<g>
			<path d="M36.6-55.5c0,1.2-0.2,2.3-0.5,3.3c-0.3,1-0.8,1.9-1.4,2.6c-0.6,0.7-1.3,1.3-2.1,1.7c-0.8,0.4-1.7,0.6-2.7,0.6
				c-1,0-1.9-0.2-2.7-0.6c-0.8-0.4-1.6-1-2.2-1.7c-0.6-0.7-1.1-1.6-1.4-2.6c-0.3-1-0.5-2.1-0.5-3.3c0-1.2,0.2-2.3,0.5-3.3
				c0.3-1,0.8-1.9,1.4-2.6c0.6-0.7,1.3-1.3,2.2-1.7c0.8-0.4,1.7-0.6,2.7-0.6c1,0,1.9,0.2,2.7,0.6c0.8,0.4,1.5,1,2.1,1.7
				c0.6,0.7,1.1,1.6,1.4,2.6C36.4-57.8,36.6-56.7,36.6-55.5z M34.7-55.5c0-1-0.1-1.9-0.4-2.6c-0.2-0.8-0.6-1.5-1-2.1
				c-0.4-0.6-1-1-1.6-1.3c-0.6-0.3-1.3-0.5-2-0.5c-0.7,0-1.4,0.2-2,0.5c-0.6,0.3-1.1,0.7-1.6,1.3c-0.4,0.6-0.8,1.3-1,2.1
				c-0.2,0.8-0.4,1.7-0.4,2.6c0,1,0.1,1.9,0.4,2.7c0.2,0.8,0.6,1.5,1,2c0.4,0.6,1,1,1.6,1.3c0.6,0.3,1.3,0.5,2,0.5
				c0.7,0,1.4-0.2,2-0.5c0.6-0.3,1.1-0.7,1.6-1.3c0.4-0.6,0.8-1.2,1-2C34.6-53.7,34.7-54.5,34.7-55.5z"/>
		</g>
	</g>
</g>
<g>
	<g transform="translate(151.681022, 405.272738)">
		<g>
			<path d="M26.8-47.6c0-0.6,0.1-1.2,0.2-1.9c0.1-0.6,0.3-1.2,0.6-1.9c0.3-0.6,0.8-1.2,1.4-1.8c0.6-0.6,1.4-1.1,2.4-1.6
				c0.5-0.3,1.1-0.5,1.6-0.8c0.6-0.3,1.1-0.6,1.6-0.9c0.5-0.3,0.9-0.7,1.2-1.1c0.3-0.4,0.5-0.9,0.5-1.4c0-0.3-0.1-0.7-0.2-1
				c-0.2-0.3-0.4-0.6-0.7-0.9c-0.3-0.3-0.7-0.5-1.1-0.6c-0.4-0.2-1-0.2-1.6-0.2c-0.6,0-1.1,0.1-1.6,0.3c-0.5,0.2-0.9,0.4-1.2,0.6
				c-0.3,0.2-0.6,0.5-0.9,0.7c-0.2,0.3-0.4,0.5-0.6,0.6l-1.2-1.3c0.1-0.1,0.3-0.3,0.6-0.6c0.3-0.3,0.7-0.6,1.2-0.9
				c0.5-0.3,1.1-0.5,1.7-0.8c0.7-0.2,1.4-0.4,2.2-0.4s1.6,0.1,2.2,0.4c0.7,0.2,1.2,0.5,1.6,0.9c0.5,0.4,0.8,0.8,1,1.4
				c0.2,0.5,0.4,1.1,0.4,1.6c0,0.7-0.2,1.4-0.5,1.9c-0.3,0.5-0.7,1-1.2,1.4c-0.5,0.4-1,0.7-1.5,1c-0.5,0.3-1,0.5-1.5,0.7
				c-0.6,0.2-1.2,0.5-1.7,0.9c-0.5,0.3-1,0.7-1.5,1c-0.4,0.4-0.8,0.8-1.1,1.3c-0.3,0.5-0.4,1-0.4,1.6h9.6v1.7H26.8z"/>
		</g>
	</g>
</g>
<g>
	<g transform="translate(162.271294, 405.272738)">
		<g>
			<path d="M44.3-55.5c0,1.2-0.2,2.3-0.5,3.3c-0.3,1-0.8,1.9-1.4,2.6c-0.6,0.7-1.3,1.3-2.1,1.7c-0.8,0.4-1.7,0.6-2.7,0.6
				c-1,0-1.9-0.2-2.7-0.6c-0.8-0.4-1.6-1-2.2-1.7c-0.6-0.7-1.1-1.6-1.4-2.6c-0.3-1-0.5-2.1-0.5-3.3c0-1.2,0.2-2.3,0.5-3.3
				c0.3-1,0.8-1.9,1.4-2.6c0.6-0.7,1.3-1.3,2.2-1.7c0.8-0.4,1.7-0.6,2.7-0.6c1,0,1.9,0.2,2.7,0.6c0.8,0.4,1.5,1,2.1,1.7
				c0.6,0.7,1.1,1.6,1.4,2.6C44.1-57.8,44.3-56.7,44.3-55.5z M42.4-55.5c0-1-0.1-1.9-0.4-2.6c-0.2-0.8-0.6-1.5-1-2.1
				c-0.4-0.6-1-1-1.6-1.3c-0.6-0.3-1.3-0.5-2-0.5c-0.7,0-1.4,0.2-2,0.5c-0.6,0.3-1.1,0.7-1.6,1.3c-0.4,0.6-0.8,1.3-1,2.1
				c-0.2,0.8-0.4,1.7-0.4,2.6c0,1,0.1,1.9,0.4,2.7c0.2,0.8,0.6,1.5,1,2c0.4,0.6,1,1,1.6,1.3c0.6,0.3,1.3,0.5,2,0.5
				c0.7,0,1.4-0.2,2-0.5c0.6-0.3,1.1-0.7,1.6-1.3c0.4-0.6,0.8-1.2,1-2C42.3-53.7,42.4-54.5,42.4-55.5z"/>
		</g>
	</g>
</g>
<g>
	<g transform="translate(216.844963, 405.272738)">
		<g>
			<path d="M90.7-47.6c0-0.6,0.1-1.2,0.2-1.9c0.1-0.6,0.3-1.2,0.6-1.9c0.3-0.6,0.8-1.2,1.4-1.8c0.6-0.6,1.4-1.1,2.4-1.6
				c0.5-0.3,1.1-0.5,1.6-0.8c0.6-0.3,1.1-0.6,1.6-0.9c0.5-0.3,0.9-0.7,1.2-1.1c0.3-0.4,0.5-0.9,0.5-1.4c0-0.3-0.1-0.7-0.2-1
				c-0.2-0.3-0.4-0.6-0.7-0.9c-0.3-0.3-0.7-0.5-1.1-0.6c-0.4-0.2-1-0.2-1.6-0.2c-0.6,0-1.1,0.1-1.6,0.3c-0.5,0.2-0.9,0.4-1.2,0.6
				c-0.3,0.2-0.6,0.5-0.9,0.7c-0.2,0.3-0.4,0.5-0.6,0.6l-1.2-1.3c0.1-0.1,0.3-0.3,0.6-0.6c0.3-0.3,0.7-0.6,1.2-0.9
				c0.5-0.3,1.1-0.5,1.7-0.8c0.7-0.2,1.4-0.4,2.2-0.4c0.8,0,1.6,0.1,2.2,0.4c0.7,0.2,1.2,0.5,1.6,0.9c0.5,0.4,0.8,0.8,1,1.4
				c0.2,0.5,0.4,1.1,0.4,1.6c0,0.7-0.2,1.4-0.5,1.9c-0.3,0.5-0.7,1-1.2,1.4c-0.5,0.4-1,0.7-1.5,1c-0.5,0.3-1,0.5-1.5,0.7
				c-0.6,0.2-1.2,0.5-1.7,0.9c-0.5,0.3-1,0.7-1.5,1c-0.4,0.4-0.8,0.8-1.1,1.3c-0.3,0.5-0.4,1-0.4,1.6h9.6v1.7H90.7z"/>
		</g>
	</g>
</g>
<g>
	<g transform="translate(227.435235, 405.272738)">
		<g>
			<path d="M108.1-55.5c0,1.2-0.2,2.3-0.5,3.3c-0.3,1-0.8,1.9-1.4,2.6c-0.6,0.7-1.3,1.3-2.1,1.7c-0.8,0.4-1.7,0.6-2.7,0.6
				c-1,0-1.9-0.2-2.7-0.6c-0.8-0.4-1.6-1-2.2-1.7c-0.6-0.7-1.1-1.6-1.4-2.6c-0.3-1-0.5-2.1-0.5-3.3c0-1.2,0.2-2.3,0.5-3.3
				c0.3-1,0.8-1.9,1.4-2.6c0.6-0.7,1.3-1.3,2.2-1.7c0.8-0.4,1.7-0.6,2.7-0.6c1,0,1.9,0.2,2.7,0.6c0.8,0.4,1.5,1,2.1,1.7
				c0.6,0.7,1.1,1.6,1.4,2.6C107.9-57.8,108.1-56.7,108.1-55.5z M106.2-55.5c0-1-0.1-1.9-0.4-2.6c-0.2-0.8-0.6-1.5-1-2.1
				c-0.4-0.6-1-1-1.6-1.3c-0.6-0.3-1.3-0.5-2-0.5c-0.7,0-1.4,0.2-2,0.5c-0.6,0.3-1.1,0.7-1.6,1.3c-0.4,0.6-0.8,1.3-1,2.1
				c-0.2,0.8-0.4,1.7-0.4,2.6c0,1,0.1,1.9,0.4,2.7c0.2,0.8,0.6,1.5,1,2c0.4,0.6,1,1,1.6,1.3c0.6,0.3,1.3,0.5,2,0.5
				c0.7,0,1.4-0.2,2-0.5c0.6-0.3,1.1-0.7,1.6-1.3c0.4-0.6,0.8-1.2,1-2C106.1-53.7,106.2-54.5,106.2-55.5z"/>
		</g>
	</g>
</g>
<g>
	<g transform="translate(239.875253, 405.272738)">
		<g>
			<path d="M98.3-47.6c0-0.6,0.1-1.2,0.2-1.9c0.1-0.6,0.3-1.2,0.6-1.9c0.3-0.6,0.8-1.2,1.4-1.8c0.6-0.6,1.4-1.1,2.4-1.6
				c0.5-0.3,1.1-0.5,1.6-0.8c0.6-0.3,1.1-0.6,1.6-0.9c0.5-0.3,0.9-0.7,1.2-1.1c0.3-0.4,0.5-0.9,0.5-1.4c0-0.3-0.1-0.7-0.2-1
				c-0.2-0.3-0.4-0.6-0.7-0.9c-0.3-0.3-0.7-0.5-1.1-0.6c-0.4-0.2-1-0.2-1.6-0.2c-0.6,0-1.1,0.1-1.6,0.3c-0.5,0.2-0.9,0.4-1.2,0.6
				c-0.3,0.2-0.6,0.5-0.9,0.7c-0.2,0.3-0.4,0.5-0.6,0.6l-1.2-1.3c0.1-0.1,0.3-0.3,0.6-0.6c0.3-0.3,0.7-0.6,1.2-0.9
				c0.5-0.3,1.1-0.5,1.7-0.8c0.7-0.2,1.4-0.4,2.2-0.4s1.6,0.1,2.2,0.4c0.7,0.2,1.2,0.5,1.6,0.9c0.5,0.4,0.8,0.8,1,1.4
				c0.2,0.5,0.4,1.1,0.4,1.6c0,0.7-0.2,1.4-0.5,1.9c-0.3,0.5-0.7,1-1.2,1.4c-0.5,0.4-1,0.7-1.5,1c-0.5,0.3-1,0.5-1.5,0.7
				c-0.6,0.2-1.2,0.5-1.7,0.9c-0.5,0.3-1,0.7-1.5,1c-0.4,0.4-0.8,0.8-1.1,1.3c-0.3,0.5-0.4,1-0.4,1.6h9.6v1.7H98.3z"/>
		</g>
	</g>
</g>
<g>
	<g transform="translate(250.465525, 405.272738)">
		<g>
			<path d="M111.6-49.3v1.7h-9.2v-1.7h3.8v-11.6c-0.2,0.2-0.4,0.4-0.7,0.7c-0.3,0.2-0.7,0.5-1.2,0.7c-0.4,0.2-0.9,0.4-1.3,0.5
				c-0.4,0.1-0.8,0.2-1.2,0.2v-1.8c0.4,0,0.9-0.1,1.4-0.4c0.5-0.2,1-0.5,1.4-0.8c0.4-0.3,0.8-0.6,1.1-0.9c0.3-0.3,0.5-0.5,0.5-0.6
				h1.9v13.8H111.6z"/>
		</g>
	</g>
</g>
<g>
	<g transform="translate(302.226745, 405.272738)">
		<g>
			<path d="M157.5-47.6c0-0.6,0.1-1.2,0.2-1.9c0.1-0.6,0.3-1.2,0.6-1.9c0.3-0.6,0.8-1.2,1.4-1.8c0.6-0.6,1.4-1.1,2.4-1.6
				c0.5-0.3,1.1-0.5,1.6-0.8c0.6-0.3,1.1-0.6,1.6-0.9c0.5-0.3,0.9-0.7,1.2-1.1c0.3-0.4,0.5-0.9,0.5-1.4c0-0.3-0.1-0.7-0.2-1
				c-0.2-0.3-0.4-0.6-0.7-0.9c-0.3-0.3-0.7-0.5-1.1-0.6c-0.4-0.2-1-0.2-1.6-0.2c-0.6,0-1.1,0.1-1.6,0.3c-0.5,0.2-0.9,0.4-1.2,0.6
				c-0.3,0.2-0.6,0.5-0.9,0.7c-0.2,0.3-0.4,0.5-0.6,0.6l-1.2-1.3c0.1-0.1,0.3-0.3,0.6-0.6c0.3-0.3,0.7-0.6,1.2-0.9
				c0.5-0.3,1.1-0.5,1.7-0.8c0.7-0.2,1.4-0.4,2.2-0.4c0.8,0,1.6,0.1,2.2,0.4c0.7,0.2,1.2,0.5,1.6,0.9c0.5,0.4,0.8,0.8,1,1.4
				c0.2,0.5,0.4,1.1,0.4,1.6c0,0.7-0.2,1.4-0.5,1.9c-0.3,0.5-0.7,1-1.2,1.4c-0.5,0.4-1,0.7-1.5,1c-0.5,0.3-1,0.5-1.5,0.7
				c-0.6,0.2-1.2,0.5-1.7,0.9c-0.5,0.3-1,0.7-1.5,1c-0.4,0.4-0.8,0.8-1.1,1.3c-0.3,0.5-0.4,1-0.4,1.6h9.6v1.7H157.5z"/>
		</g>
	</g>
</g>
<g>
	<g transform="translate(312.817018, 405.272738)">
		<g>
			<path d="M174.9-55.5c0,1.2-0.2,2.3-0.5,3.3c-0.3,1-0.8,1.9-1.4,2.6c-0.6,0.7-1.3,1.3-2.1,1.7c-0.8,0.4-1.7,0.6-2.7,0.6
				c-1,0-1.9-0.2-2.7-0.6c-0.8-0.4-1.6-1-2.2-1.7c-0.6-0.7-1.1-1.6-1.4-2.6c-0.3-1-0.5-2.1-0.5-3.3c0-1.2,0.2-2.3,0.5-3.3
				c0.3-1,0.8-1.9,1.4-2.6c0.6-0.7,1.3-1.3,2.2-1.7c0.8-0.4,1.7-0.6,2.7-0.6c1,0,1.9,0.2,2.7,0.6c0.8,0.4,1.5,1,2.1,1.7
				c0.6,0.7,1.1,1.6,1.4,2.6C174.7-57.8,174.9-56.7,174.9-55.5z M173-55.5c0-1-0.1-1.9-0.4-2.6c-0.2-0.8-0.6-1.5-1-2.1
				c-0.4-0.6-1-1-1.6-1.3c-0.6-0.3-1.3-0.5-2-0.5c-0.7,0-1.4,0.2-2,0.5c-0.6,0.3-1.1,0.7-1.6,1.3c-0.4,0.6-0.8,1.3-1,2.1
				c-0.2,0.8-0.4,1.7-0.4,2.6c0,1,0.1,1.9,0.4,2.7c0.2,0.8,0.6,1.5,1,2c0.4,0.6,1,1,1.6,1.3c0.6,0.3,1.3,0.5,2,0.5
				c0.7,0,1.4-0.2,2-0.5c0.6-0.3,1.1-0.7,1.6-1.3c0.4-0.6,0.8-1.2,1-2C172.9-53.7,173-54.5,173-55.5z"/>
		</g>
	</g>
</g>
<g>
	<g transform="translate(325.257036, 405.272738)">
		<g>
			<path d="M165.1-47.6c0-0.6,0.1-1.2,0.2-1.9c0.1-0.6,0.3-1.2,0.6-1.9c0.3-0.6,0.8-1.2,1.4-1.8c0.6-0.6,1.4-1.1,2.4-1.6
				c0.5-0.3,1.1-0.5,1.6-0.8c0.6-0.3,1.1-0.6,1.6-0.9c0.5-0.3,0.9-0.7,1.2-1.1c0.3-0.4,0.5-0.9,0.5-1.4c0-0.3-0.1-0.7-0.2-1
				c-0.2-0.3-0.4-0.6-0.7-0.9c-0.3-0.3-0.7-0.5-1.1-0.6c-0.4-0.2-1-0.2-1.6-0.2c-0.6,0-1.1,0.1-1.6,0.3c-0.5,0.2-0.9,0.4-1.2,0.6
				c-0.3,0.2-0.6,0.5-0.9,0.7c-0.2,0.3-0.4,0.5-0.6,0.6l-1.2-1.3c0.1-0.1,0.3-0.3,0.6-0.6c0.3-0.3,0.7-0.6,1.2-0.9
				c0.5-0.3,1.1-0.5,1.7-0.8c0.7-0.2,1.4-0.4,2.2-0.4c0.8,0,1.6,0.1,2.2,0.4c0.7,0.2,1.2,0.5,1.6,0.9c0.5,0.4,0.8,0.8,1,1.4
				c0.2,0.5,0.4,1.1,0.4,1.6c0,0.7-0.2,1.4-0.5,1.9c-0.3,0.5-0.7,1-1.2,1.4c-0.5,0.4-1,0.7-1.5,1c-0.5,0.3-1,0.5-1.5,0.7
				c-0.6,0.2-1.2,0.5-1.7,0.9c-0.5,0.3-1,0.7-1.5,1c-0.4,0.4-0.8,0.8-1.1,1.3c-0.3,0.5-0.4,1-0.4,1.6h9.6v1.7H165.1z"/>
		</g>
	</g>
</g>
<g>
	<g transform="translate(335.847308, 405.272738)">
		<g>
			<path d="M168.6-47.6c0-0.6,0.1-1.2,0.2-1.9c0.1-0.6,0.3-1.2,0.6-1.9c0.3-0.6,0.8-1.2,1.4-1.8c0.6-0.6,1.4-1.1,2.4-1.6
				c0.5-0.3,1.1-0.5,1.6-0.8c0.6-0.3,1.1-0.6,1.6-0.9c0.5-0.3,0.9-0.7,1.2-1.1c0.3-0.4,0.5-0.9,0.5-1.4c0-0.3-0.1-0.7-0.2-1
				c-0.2-0.3-0.4-0.6-0.7-0.9c-0.3-0.3-0.7-0.5-1.1-0.6c-0.4-0.2-1-0.2-1.6-0.2c-0.6,0-1.1,0.1-1.6,0.3c-0.5,0.2-0.9,0.4-1.2,0.6
				c-0.3,0.2-0.6,0.5-0.9,0.7c-0.2,0.3-0.4,0.5-0.6,0.6l-1.2-1.3c0.1-0.1,0.3-0.3,0.6-0.6c0.3-0.3,0.7-0.6,1.2-0.9
				c0.5-0.3,1.1-0.5,1.7-0.8c0.7-0.2,1.4-0.4,2.2-0.4s1.6,0.1,2.2,0.4c0.7,0.2,1.2,0.5,1.6,0.9c0.5,0.4,0.8,0.8,1,1.4
				c0.2,0.5,0.4,1.1,0.4,1.6c0,0.7-0.2,1.4-0.5,1.9c-0.3,0.5-0.7,1-1.2,1.4c-0.5,0.4-1,0.7-1.5,1c-0.5,0.3-1,0.5-1.5,0.7
				c-0.6,0.2-1.2,0.5-1.7,0.9c-0.5,0.3-1,0.7-1.5,1c-0.4,0.4-0.8,0.8-1.1,1.3c-0.3,0.5-0.4,1-0.4,1.6h9.6v1.7H168.6z"/>
		</g>
	</g>
</g>
<g>
	<g transform="translate(68.222701, 156.942998)">
		<g>
			<path d="M-54.5-138.4c0.9,0,1.7,0.2,2.5,0.5c0.8,0.3,1.4,0.7,2,1.2c0.6,0.5,1,1.2,1.3,1.9c0.3,0.7,0.5,1.6,0.5,2.5
				c0,1-0.2,1.8-0.5,2.6c-0.3,0.8-0.8,1.5-1.4,2c-0.6,0.6-1.3,1-2.1,1.3c-0.8,0.3-1.7,0.5-2.6,0.5c-0.7,0-1.4-0.1-2-0.3
				c-0.6-0.2-1.2-0.4-1.7-0.7c-0.5-0.3-1-0.7-1.4-1.2c-0.4-0.4-0.8-0.9-1-1.5l1.2-0.9c0.5,0.9,1.2,1.6,2.1,2.1s1.8,0.8,2.9,0.8
				c0.7,0,1.3-0.1,1.9-0.3c0.6-0.2,1.1-0.5,1.5-1c0.4-0.4,0.8-0.9,1-1.5c0.2-0.6,0.4-1.2,0.4-1.9c0-0.7-0.1-1.3-0.4-1.8
				c-0.2-0.6-0.6-1-1-1.4c-0.4-0.4-0.9-0.7-1.5-0.9c-0.6-0.2-1.2-0.3-1.8-0.3c-0.8,0-1.6,0.2-2.4,0.6c-0.7,0.4-1.4,0.9-1.8,1.6h-1.7
				c0-0.1,0.1-0.4,0.1-0.7c0.1-0.4,0.2-0.8,0.3-1.4c0.1-0.5,0.2-1.1,0.4-1.7c0.1-0.7,0.3-1.3,0.4-2c0.3-1.5,0.6-3.2,1-5.1h9.3v1.7
				h-7.9l-1.3,6.9c0.5-0.5,1-0.9,1.7-1.2C-56.1-138.3-55.3-138.4-54.5-138.4z"/>
		</g>
	</g>
</g>
<g>
	<g transform="translate(79.30082, 156.942998)">
		<g>
			<path d="M-43.3-137.9c0,1.2-0.2,2.3-0.5,3.3c-0.3,1-0.8,1.9-1.4,2.6c-0.6,0.7-1.3,1.3-2.1,1.7c-0.8,0.4-1.7,0.6-2.7,0.6
				c-1,0-1.9-0.2-2.7-0.6c-0.8-0.4-1.6-1-2.2-1.7c-0.6-0.7-1.1-1.6-1.4-2.6c-0.3-1-0.5-2.1-0.5-3.3c0-1.2,0.2-2.3,0.5-3.3
				c0.3-1,0.8-1.9,1.4-2.6c0.6-0.7,1.3-1.3,2.2-1.7c0.8-0.4,1.7-0.6,2.7-0.6c1,0,1.9,0.2,2.7,0.6c0.8,0.4,1.5,1,2.1,1.7
				c0.6,0.7,1.1,1.6,1.4,2.6C-43.4-140.2-43.3-139.1-43.3-137.9z M-45.1-137.9c0-1-0.1-1.9-0.4-2.6c-0.2-0.8-0.6-1.5-1-2.1
				c-0.4-0.6-1-1-1.6-1.3c-0.6-0.3-1.3-0.5-2-0.5c-0.7,0-1.4,0.2-2,0.5c-0.6,0.3-1.1,0.7-1.6,1.3c-0.4,0.6-0.8,1.3-1,2.1
				c-0.2,0.8-0.4,1.7-0.4,2.6c0,1,0.1,1.9,0.4,2.7c0.2,0.8,0.6,1.5,1,2c0.4,0.6,1,1,1.6,1.3c0.6,0.3,1.3,0.5,2,0.5
				c0.7,0,1.4-0.2,2-0.5c0.6-0.3,1.1-0.7,1.6-1.3c0.4-0.6,0.8-1.2,1-2C-45.3-136-45.1-136.9-45.1-137.9z"/>
		</g>
	</g>
</g>
<g>
	<g transform="translate(91.740837, 156.942998)">
		<g>
			<path d="M-34.8-129.9v-15.8l-7,12.2h-1.1l-7-12.2v15.8h-1.9v-19.2h1.9l7.5,13.2l7.6-13.2h1.9v19.2H-34.8z"/>
		</g>
	</g>
</g>
<g>
	<g transform="translate(109.567197, 156.942998)">
	</g>
</g>
<g>
	<g transform="translate(68.204169, 202.178948)">
		<g>
			<path d="M-52.4-111.5v-4.8h-9v-1.6l9.6-12.5h1.2v12.4h2.4v1.7h-2.4v4.8H-52.4z M-59.4-118h7.2v-9.5L-59.4-118z"/>
		</g>
	</g>
</g>
<g>
	<g transform="translate(79.302614, 202.178948)">
		<g>
			<path d="M-43.3-122.9c0,1.2-0.2,2.3-0.5,3.3c-0.3,1-0.8,1.9-1.4,2.6c-0.6,0.7-1.3,1.3-2.1,1.7c-0.8,0.4-1.7,0.6-2.7,0.6
				c-1,0-1.9-0.2-2.7-0.6c-0.8-0.4-1.6-1-2.2-1.7c-0.6-0.7-1.1-1.6-1.4-2.6c-0.3-1-0.5-2.1-0.5-3.3c0-1.2,0.2-2.3,0.5-3.3
				c0.3-1,0.8-1.9,1.4-2.6c0.6-0.7,1.3-1.3,2.2-1.7c0.8-0.4,1.7-0.6,2.7-0.6c1,0,1.9,0.2,2.7,0.6c0.8,0.4,1.5,1,2.1,1.7
				c0.6,0.7,1.1,1.6,1.4,2.6C-43.4-125.2-43.3-124.1-43.3-122.9z M-45.1-122.9c0-1-0.1-1.9-0.4-2.6c-0.2-0.8-0.6-1.5-1-2.1
				c-0.4-0.6-1-1-1.6-1.3c-0.6-0.3-1.3-0.5-2-0.5c-0.7,0-1.4,0.2-2,0.5c-0.6,0.3-1.1,0.7-1.6,1.3c-0.4,0.6-0.8,1.3-1,2.1
				c-0.2,0.8-0.4,1.7-0.4,2.6c0,1,0.1,1.9,0.4,2.7c0.2,0.8,0.6,1.5,1,2c0.4,0.6,1,1,1.6,1.3c0.6,0.3,1.3,0.5,2,0.5
				c0.7,0,1.4-0.2,2-0.5c0.6-0.3,1.1-0.7,1.6-1.3c0.4-0.6,0.8-1.2,1-2C-45.3-121-45.1-121.9-45.1-122.9z"/>
		</g>
	</g>
</g>
<g>
	<g transform="translate(91.742632, 202.178948)">
		<g>
			<path d="M-34.8-114.9v-15.8l-7,12.2h-1.1l-7-12.2v15.8h-1.9v-19.2h1.9l7.5,13.2l7.6-13.2h1.9v19.2H-34.8z"/>
		</g>
	</g>
</g>
<g>
	<g transform="translate(109.565512, 202.178948)">
	</g>
</g>
<g>
	<g transform="translate(68.447338, 247.414883)">
		<g>
			<path d="M-52.7-106.3c1.2,0.2,2.1,0.7,2.9,1.6c0.7,0.9,1.1,2,1.1,3.3c0,0.8-0.2,1.6-0.5,2.2c-0.3,0.7-0.7,1.3-1.3,1.7
				c-0.5,0.5-1.2,0.9-2,1.1c-0.8,0.3-1.6,0.4-2.6,0.4c-1.4,0-2.6-0.3-3.6-0.8c-1-0.5-1.8-1.3-2.3-2.3l1.3-1.2
				c0.4,0.8,0.9,1.4,1.7,1.9c0.8,0.5,1.7,0.7,2.9,0.7c1.4,0,2.4-0.3,3.2-1c0.8-0.7,1.2-1.6,1.2-2.8c0-1.2-0.4-2.2-1.2-3
				c-0.8-0.7-2-1.1-3.5-1.1H-56v-1.6h0.7c1.4,0,2.4-0.3,3.2-1c0.7-0.7,1.1-1.5,1.1-2.5c0-0.5-0.1-1-0.3-1.4c-0.2-0.4-0.5-0.8-0.8-1
				c-0.3-0.3-0.8-0.5-1.2-0.6c-0.5-0.2-1-0.2-1.5-0.2c-1,0-1.9,0.2-2.7,0.7c-0.8,0.5-1.4,1.1-1.8,1.9l-1.2-1.1
				c0.2-0.5,0.5-0.9,0.9-1.3c0.4-0.4,0.9-0.7,1.4-1c0.5-0.3,1.1-0.5,1.7-0.6c0.6-0.2,1.3-0.2,1.9-0.2c0.8,0,1.6,0.1,2.3,0.4
				c0.7,0.2,1.3,0.6,1.8,1c0.5,0.4,0.9,0.9,1.2,1.5c0.3,0.6,0.4,1.2,0.4,2c0,0.5-0.1,1.1-0.2,1.6c-0.2,0.5-0.4,0.9-0.7,1.3
				c-0.3,0.4-0.7,0.7-1.1,1C-51.6-106.6-52.1-106.4-52.7-106.3z"/>
		</g>
	</g>
</g>
<g>
	<g transform="translate(79.301861, 247.414883)">
		<g>
			<path d="M-43.3-107.9c0,1.2-0.2,2.3-0.5,3.3c-0.3,1-0.8,1.9-1.4,2.6c-0.6,0.7-1.3,1.3-2.1,1.7c-0.8,0.4-1.7,0.6-2.7,0.6
				c-1,0-1.9-0.2-2.7-0.6c-0.8-0.4-1.6-1-2.2-1.7c-0.6-0.7-1.1-1.6-1.4-2.6c-0.3-1-0.5-2.1-0.5-3.3c0-1.2,0.2-2.3,0.5-3.3
				c0.3-1,0.8-1.9,1.4-2.6c0.6-0.7,1.3-1.3,2.2-1.7c0.8-0.4,1.7-0.6,2.7-0.6c1,0,1.9,0.2,2.7,0.6c0.8,0.4,1.5,1,2.1,1.7
				c0.6,0.7,1.1,1.6,1.4,2.6C-43.4-110.2-43.3-109.1-43.3-107.9z M-45.1-107.9c0-1-0.1-1.9-0.4-2.6c-0.2-0.8-0.6-1.5-1-2.1
				c-0.4-0.6-1-1-1.6-1.3c-0.6-0.3-1.3-0.5-2-0.5c-0.7,0-1.4,0.2-2,0.5c-0.6,0.3-1.1,0.7-1.6,1.3c-0.4,0.6-0.8,1.3-1,2.1
				c-0.2,0.8-0.4,1.7-0.4,2.6c0,1,0.1,1.9,0.4,2.7c0.2,0.8,0.6,1.5,1,2c0.4,0.6,1,1,1.6,1.3c0.6,0.3,1.3,0.5,2,0.5
				c0.7,0,1.4-0.2,2-0.5c0.6-0.3,1.1-0.7,1.6-1.3c0.4-0.6,0.8-1.2,1-2C-45.3-106-45.1-106.9-45.1-107.9z"/>
		</g>
	</g>
</g>
<g>
	<g transform="translate(91.741878, 247.414883)">
		<g>
			<path d="M-34.8-99.9v-15.8l-7,12.2h-1.1l-7-12.2v15.8h-1.9v-19.2h1.9l7.5,13.2l7.6-13.2h1.9v19.2H-34.8z"/>
		</g>
	</g>
</g>
<g>
	<g transform="translate(109.564389, 247.414883)">
	</g>
</g>
<g>
	<g transform="translate(68.707912, 292.650833)">
		<g>
			<path d="M-60.7-84.9c0-0.6,0.1-1.2,0.2-1.9c0.1-0.6,0.3-1.2,0.6-1.9c0.3-0.6,0.8-1.2,1.4-1.8c0.6-0.6,1.4-1.1,2.4-1.6
				c0.5-0.3,1.1-0.5,1.6-0.8c0.6-0.3,1.1-0.6,1.6-0.9c0.5-0.3,0.9-0.7,1.2-1.1c0.3-0.4,0.5-0.9,0.5-1.4c0-0.3-0.1-0.7-0.2-1
				c-0.2-0.3-0.4-0.6-0.7-0.9c-0.3-0.3-0.7-0.5-1.1-0.6c-0.4-0.2-1-0.2-1.6-0.2c-0.6,0-1.1,0.1-1.6,0.3c-0.5,0.2-0.9,0.4-1.2,0.6
				c-0.3,0.2-0.6,0.5-0.9,0.7c-0.2,0.3-0.4,0.5-0.6,0.6l-1.2-1.3c0.1-0.1,0.3-0.3,0.6-0.6c0.3-0.3,0.7-0.6,1.2-0.9
				c0.5-0.3,1.1-0.5,1.7-0.8c0.7-0.2,1.4-0.4,2.2-0.4c0.8,0,1.6,0.1,2.2,0.4c0.7,0.2,1.2,0.5,1.6,0.9c0.5,0.4,0.8,0.8,1,1.4
				c0.2,0.5,0.4,1.1,0.4,1.6c0,0.7-0.2,1.4-0.5,1.9c-0.3,0.5-0.7,1-1.2,1.4c-0.5,0.4-1,0.7-1.5,1c-0.5,0.3-1,0.5-1.5,0.7
				c-0.6,0.2-1.2,0.5-1.7,0.9c-0.5,0.3-1,0.7-1.5,1c-0.4,0.4-0.8,0.8-1.1,1.3c-0.3,0.5-0.4,1-0.4,1.6h9.6v1.7H-60.7z"/>
		</g>
	</g>
</g>
<g>
	<g transform="translate(79.298185, 292.650833)">
		<g>
			<path d="M-43.3-92.9c0,1.2-0.2,2.3-0.5,3.3c-0.3,1-0.8,1.9-1.4,2.6c-0.6,0.7-1.3,1.3-2.1,1.7c-0.8,0.4-1.7,0.6-2.7,0.6
				c-1,0-1.9-0.2-2.7-0.6c-0.8-0.4-1.6-1-2.2-1.7c-0.6-0.7-1.1-1.6-1.4-2.6c-0.3-1-0.5-2.1-0.5-3.3c0-1.2,0.2-2.3,0.5-3.3
				c0.3-1,0.8-1.9,1.4-2.6c0.6-0.7,1.3-1.3,2.2-1.7c0.8-0.4,1.7-0.6,2.7-0.6c1,0,1.9,0.2,2.7,0.6c0.8,0.4,1.5,1,2.1,1.7
				c0.6,0.7,1.1,1.6,1.4,2.6C-43.4-95.2-43.3-94.1-43.3-92.9z M-45.1-92.9c0-1-0.1-1.9-0.4-2.6c-0.2-0.8-0.6-1.5-1-2.1
				c-0.4-0.6-1-1-1.6-1.3c-0.6-0.3-1.3-0.5-2-0.5c-0.7,0-1.4,0.2-2,0.5c-0.6,0.3-1.1,0.7-1.6,1.3c-0.4,0.6-0.8,1.3-1,2.1
				c-0.2,0.8-0.4,1.7-0.4,2.6c0,1,0.1,1.9,0.4,2.7c0.2,0.8,0.6,1.5,1,2c0.4,0.6,1,1,1.6,1.3c0.6,0.3,1.3,0.5,2,0.5
				c0.7,0,1.4-0.2,2-0.5c0.6-0.3,1.1-0.7,1.6-1.3c0.4-0.6,0.8-1.2,1-2C-45.3-91-45.1-91.9-45.1-92.9z"/>
		</g>
	</g>
</g>
<g>
	<g transform="translate(91.738203, 292.650833)">
		<g>
			<path d="M-34.8-84.9v-15.8l-7,12.2h-1.1l-7-12.2v15.8h-1.9v-19.2h1.9l7.5,13.2l7.6-13.2h1.9v19.2H-34.8z"/>
		</g>
	</g>
</g>
<g>
	<g transform="translate(109.563822, 292.650833)">
	</g>
</g>
<g>
	<g transform="translate(70.603299, 337.886753)">
		<g>
			<path d="M-50.2-71.6v1.7h-9.2v-1.7h3.8v-11.6c-0.2,0.2-0.4,0.4-0.7,0.7c-0.3,0.2-0.7,0.5-1.2,0.7c-0.4,0.2-0.9,0.4-1.3,0.5
				c-0.4,0.1-0.8,0.2-1.2,0.2v-1.8c0.4,0,0.9-0.1,1.4-0.4c0.5-0.2,1-0.5,1.4-0.8c0.4-0.3,0.8-0.6,1.1-0.9c0.3-0.3,0.5-0.5,0.5-0.6
				h1.9v13.8H-50.2z"/>
		</g>
	</g>
</g>
<g>
	<g transform="translate(79.303179, 337.886753)">
		<g>
			<path d="M-43.3-77.9c0,1.2-0.2,2.3-0.5,3.3c-0.3,1-0.8,1.9-1.4,2.6c-0.6,0.7-1.3,1.3-2.1,1.7c-0.8,0.4-1.7,0.6-2.7,0.6
				c-1,0-1.9-0.2-2.7-0.6c-0.8-0.4-1.6-1-2.2-1.7c-0.6-0.7-1.1-1.6-1.4-2.6c-0.3-1-0.5-2.1-0.5-3.3c0-1.2,0.2-2.3,0.5-3.3
				c0.3-1,0.8-1.9,1.4-2.6c0.6-0.7,1.3-1.3,2.2-1.7c0.8-0.4,1.7-0.6,2.7-0.6c1,0,1.9,0.2,2.7,0.6c0.8,0.4,1.5,1,2.1,1.7
				c0.6,0.7,1.1,1.6,1.4,2.6C-43.4-80.2-43.3-79.1-43.3-77.9z M-45.1-77.9c0-1-0.1-1.9-0.4-2.6c-0.2-0.8-0.6-1.5-1-2.1
				c-0.4-0.6-1-1-1.6-1.3c-0.6-0.3-1.3-0.5-2-0.5c-0.7,0-1.4,0.2-2,0.5c-0.6,0.3-1.1,0.7-1.6,1.3c-0.4,0.6-0.8,1.3-1,2.1
				c-0.2,0.8-0.4,1.7-0.4,2.6c0,1,0.1,1.9,0.4,2.7c0.2,0.8,0.6,1.5,1,2c0.4,0.6,1,1,1.6,1.3c0.6,0.3,1.3,0.5,2,0.5
				c0.7,0,1.4-0.2,2-0.5c0.6-0.3,1.1-0.7,1.6-1.3c0.4-0.6,0.8-1.2,1-2C-45.3-76-45.1-76.9-45.1-77.9z"/>
		</g>
	</g>
</g>
<g>
	<g transform="translate(91.743197, 337.886753)">
		<g>
			<path d="M-34.8-69.9v-15.8l-7,12.2h-1.1l-7-12.2v15.8h-1.9v-19.2h1.9l7.5,13.2l7.6-13.2h1.9v19.2H-34.8z"/>
		</g>
	</g>
</g>
<g>
	<g transform="translate(109.563832, 337.886753)">
	</g>
</g>
<g>
	<g transform="translate(79.310237, 383.122705)">
		<g>
			<path d="M-43.3-62.9c0,1.2-0.2,2.3-0.5,3.3c-0.3,1-0.8,1.9-1.4,2.6c-0.6,0.7-1.3,1.3-2.1,1.7c-0.8,0.4-1.7,0.6-2.7,0.6
				c-1,0-1.9-0.2-2.7-0.6c-0.8-0.4-1.6-1-2.2-1.7c-0.6-0.7-1.1-1.6-1.4-2.6c-0.3-1-0.5-2.1-0.5-3.3c0-1.2,0.2-2.3,0.5-3.3
				c0.3-1,0.8-1.9,1.4-2.6c0.6-0.7,1.3-1.3,2.2-1.7c0.8-0.4,1.7-0.6,2.7-0.6c1,0,1.9,0.2,2.7,0.6c0.8,0.4,1.5,1,2.1,1.7
				c0.6,0.7,1.1,1.6,1.4,2.6C-43.4-65.2-43.3-64.1-43.3-62.9z M-45.1-62.9c0-1-0.1-1.9-0.4-2.6c-0.2-0.8-0.6-1.5-1-2.1
				c-0.4-0.6-1-1-1.6-1.3c-0.6-0.3-1.3-0.5-2-0.5c-0.7,0-1.4,0.2-2,0.5c-0.6,0.3-1.1,0.7-1.6,1.3c-0.4,0.6-0.8,1.3-1,2.1
				c-0.2,0.8-0.4,1.7-0.4,2.6c0,1,0.1,1.9,0.4,2.7c0.2,0.8,0.6,1.5,1,2c0.4,0.6,1,1,1.6,1.3c0.6,0.3,1.3,0.5,2,0.5
				c0.7,0,1.4-0.2,2-0.5c0.6-0.3,1.1-0.7,1.6-1.3c0.4-0.6,0.8-1.2,1-2C-45.3-61-45.1-61.9-45.1-62.9z"/>
		</g>
	</g>
</g>
<g>
	<g transform="translate(91.750255, 383.122705)">
		<g>
			<path d="M-34.8-54.9v-15.8l-7,12.2h-1.1l-7-12.2v15.8h-1.9v-19.2h1.9l7.5,13.2l7.6-13.2h1.9v19.2H-34.8z"/>
		</g>
	</g>
</g>
<g>
	<g transform="translate(109.568882, 383.122705)">
	</g>
</g>
<g>
	<defs>
		<rect id="SVGID_1_" x="141.7" y="137.6" width="71.8" height="181.9"/>
	</defs>
	<clipPath id="SVGID_00000090990167130086368620000006955354184438071202_">
		<use xlink:href="#SVGID_1_"  style="overflow:visible;"/>
	</clipPath>
	<g style="clip-path:url(#SVGID_00000090990167130086368620000006955354184438071202_);">
		<g>
			<defs>
				<path id="SVGID_00000127740071382721324410000008474424199053334431_" d="M141.7,318.9V143.5c0-3.1,2.5-5.7,5.7-5.7h59.9
					c1.5,0,3,0.6,4,1.7s1.7,2.5,1.7,4v175.4H141.7"/>
			</defs>
			<clipPath id="SVGID_00000109717153645142852600000016881262053608215192_">
				<use xlink:href="#SVGID_00000127740071382721324410000008474424199053334431_"  style="overflow:visible;"/>
			</clipPath>
			<g style="clip-path:url(#SVGID_00000109717153645142852600000016881262053608215192_);">
				<path class="st2" d="M141.7,47.4h301.5v271.4H141.7V47.4z"/>
			</g>
		</g>
	</g>
</g>
<g>
	<defs>
		<rect id="SVGID_00000072274644074687936930000014485473815584052360_" x="298.8" y="125.7" width="71.7" height="193.8"/>
	</defs>
	<clipPath id="SVGID_00000129173132850513923550000000259792210237031102_">
		<use xlink:href="#SVGID_00000072274644074687936930000014485473815584052360_"  style="overflow:visible;"/>
	</clipPath>
	<g style="clip-path:url(#SVGID_00000129173132850513923550000000259792210237031102_);">
		<g>
			<defs>
				<path id="SVGID_00000108269168565327694240000009921925014464147619_" d="M298.9,318.9V131.4c0-3.1,2.6-5.7,5.7-5.7h59.9
					c1.5,0,3,0.6,4,1.7c1.1,1.1,1.7,2.5,1.7,4v187.4H298.9"/>
			</defs>
			<clipPath id="SVGID_00000015346186845910197070000008570968980819778204_">
				<use xlink:href="#SVGID_00000108269168565327694240000009921925014464147619_"  style="overflow:visible;"/>
			</clipPath>
			<g style="clip-path:url(#SVGID_00000015346186845910197070000008570968980819778204_);">
				<path class="st2" d="M183.9,47.4h301.5v271.4H183.9V47.4z"/>
			</g>
		</g>
	</g>
</g>
<g>
	<defs>
		<rect id="SVGID_00000013164923309722289100000010175398890539877254_" x="452.2" y="47.4" width="71.8" height="272.1"/>
	</defs>
	<clipPath id="SVGID_00000031892601856952995670000014583240463981953723_">
		<use xlink:href="#SVGID_00000013164923309722289100000010175398890539877254_"  style="overflow:visible;"/>
	</clipPath>
	<g style="clip-path:url(#SVGID_00000031892601856952995670000014583240463981953723_);">
		<g>
			<defs>
				<path id="SVGID_00000026165784508701946090000015861392321904477825_" d="M452.3,318.9V53.1c0-3.2,2.6-5.7,5.7-5.7h59.9
					c3.2,0,5.7,2.6,5.7,5.7v265.7H452.3"/>
			</defs>
			<clipPath id="SVGID_00000042010944198221916550000010744676495190711978_">
				<use xlink:href="#SVGID_00000026165784508701946090000015861392321904477825_"  style="overflow:visible;"/>
			</clipPath>
			<g style="clip-path:url(#SVGID_00000042010944198221916550000010744676495190711978_);">
				<path class="st2" d="M222.4,47.4h301.5v271.4H222.4V47.4z"/>
			</g>
		</g>
	</g>
</g>
<line class="st7" x1="74.8" y1="0" x2="74.8" y2="319.4"/>
<line class="st7" x1="534" y1="319.4" x2="74.8" y2="319.4"/>
</svg>
